<?xml version="1.0" encoding="UTF-8" standalone="no"?>
<svg
   xmlns:dc="http://purl.org/dc/elements/1.1/"
   xmlns:cc="http://creativecommons.org/ns#"
   xmlns:rdf="http://www.w3.org/1999/02/22-rdf-syntax-ns#"
   xmlns:svg="http://www.w3.org/2000/svg"
   xmlns="http://www.w3.org/2000/svg"
   xmlns:xlink="http://www.w3.org/1999/xlink"
   width="243.91165mm"
   height="205.06802mm"
   viewBox="0 0 243.91165 205.06802"
   version="1.1"
   id="svg2383">
  <defs
     id="defs2377">
    <linearGradient
       id="linearGradient2795">
      <stop
         style="stop-color:#b8b8b8;stop-opacity:0.49803922;"
         offset="0"
         id="stop2797" />
      <stop
         style="stop-color:#7f7f7f;stop-opacity:0;"
         offset="1"
         id="stop2799" />
    </linearGradient>
    <radialGradient
       xlink:href="#linearGradient2795"
       id="radialGradient1480"
       gradientUnits="userSpaceOnUse"
       gradientTransform="matrix(8.3503742e-8,-1.1455587,5.0352133,1.810166e-6,-1721.7516,365.8729)"
       cx="61.518883"
       cy="132.28575"
       fx="61.518883"
       fy="132.28575"
       r="29.036913" />
  </defs>
  <metadata
     id="metadata2380">
    <rdf:RDF>
      <cc:Work
         rdf:about="">
        <dc:format>image/svg+xml</dc:format>
        <dc:type
           rdf:resource="http://purl.org/dc/dcmitype/StillImage" />
        <dc:title></dc:title>
      </cc:Work>
    </rdf:RDF>
  </metadata>
  <g
     id="g5235">
    <g
       transform="translate(370.66415,83.724483)"
       id="layer1">
      <g
         transform="matrix(0.26458333,0,0,0.26458333,-422.73277,-216.7639)"
         id="g2227">
        <path
           d="M 608.6165,761.10718 454.7128,915.01083 c -7.4226,7.42265 -19.4566,7.42265 -26.8785,0 l -17.9511,-17.95039 c -7.41,-7.40998 -7.4243,-19.41941 -0.032,-26.8468 L 531.8239,747.66755 409.852,625.12225 c -7.3926,-7.4274 -7.3783,-19.43683 0.032,-26.8468 l 17.9504,-17.9504 c 7.4226,-7.42264 19.4566,-7.42264 26.8784,0 l 153.9037,153.90366 c 7.4226,7.42185 7.4226,19.45583 0,26.87847 z m 302.5276,144.9439 v -25.34137 c 0,-10.49687 -8.5092,-19.00602 -19.0061,-19.00602 H 651.3951 c -10.4969,0 -19.0061,8.50915 -19.0061,19.00602 v 25.34137 c 0,10.49686 8.5092,19.00602 19.0061,19.00602 H 892.138 c 10.4969,0 19.0061,-8.50916 19.0061,-19.00602 z"
           id="path865"
           style="fill:#4e4e4e;fill-opacity:1;stroke-width:0.79191762" />
        <g
           aria-label="Console"
           style="font-style:normal;font-weight:normal;font-size:192px;line-height:125%;font-family:Sans;letter-spacing:0px;word-spacing:0px;fill:#4e4e4e;fill-opacity:1;stroke:#4e4e4e;stroke-width:7;stroke-linecap:round;stroke-linejoin:round;stroke-miterlimit:4;stroke-dasharray:none;stroke-opacity:1"
           id="text2128"
           transform="translate(1056.3809,54.079103)">
          <path
             d="m -694.62962,1029.2642 q 1.6,0.2667 3.2,0.2667 1.6,0 3.46667,0 4.26666,0 8,0.5333 3.99999,0.2667 7.46666,2.4 2.13333,0.5334 3.46667,0.5334 2.66666,0.5333 5.33333,1.3333 2.93333,0.5333 5.06667,2.6667 2.66666,0.8 5.06666,2.6666 2.66667,1.6 5.06667,3.2 v 0.2667 q 0.8,-0.2667 2.4,-0.2667 h 0.26667 v 2.9334 q -7.73334,12.5333 -14.4,24.8 -1.06667,1.8666 -1.86667,3.7333 -0.53333,1.8667 -1.06667,4 -0.8,2.1333 -1.6,4.2667 -0.8,2.1333 -2.13333,4.2666 v 0.2667 l -0.8,0.2667 q -1.06667,0.5333 -1.86667,0.2666 v -0.2666 q -0.53333,-1.6 -0.53333,-1.8667 -0.53333,-1.6 -1.06667,-2.6667 -0.26666,-1.0666 -1.6,-1.6 h -0.26666 q -4,-1.8666 -7.73333,-1.3333 -3.73334,0.2667 -7.2,1.8667 -3.46667,1.6 -6.66667,4.2666 -3.2,2.4 -6.13333,5.0667 -4.53334,5.3333 -6.13334,12 -1.6,6.4 -1.6,13.3333 0,2.9334 0,5.8667 0.26667,2.6667 0.53334,5.6 v 1.6 q 0.53333,7.7333 6.4,13.3333 6.13333,5.3334 12.8,8 0,0.2667 0.26666,0.2667 h 0.8 0.8 q 3.46667,0.5333 7.2,0.8 4,0.2667 7.46667,0 3.73333,-0.5333 6.93333,-1.6 3.46667,-1.3333 6.13333,-4.2667 v -0.5333 q 0,-1.8667 1.6,-2.1333 h 1.06667 v 0.2666 q 1.6,2.4 2.66667,5.3334 1.06666,2.6666 2.13333,5.6 1.06667,3.4666 2.4,6.9333 1.33333,3.2 3.73333,6.1333 v 0.2667 q 0.53334,2.9333 2.13334,5.6 1.6,2.4 3.46666,4.5333 l 1.86667,2.6667 q 0,1.8667 -2.4,2.4 -0.8,0.8 -2.4,3.2 -1.06667,1.3333 -2.13333,2.9333 l -4,4 q -5.33334,5.3334 -11.2,9.8667 -5.6,4.5333 -13.33334,5.8667 -6.39999,0.5333 -13.06666,0.5333 -6.4,0 -12.26667,-1.8667 h -0.26666 v -0.2666 q -1.06667,-1.0667 -2.4,-1.3334 -1.33334,-0.5333 -2.93334,-1.0666 -2.66666,-0.5334 -4.53333,-1.6 -4.26667,-0.5334 -8.26667,-2.4 -3.73333,-2.1334 -7.46666,-4.2667 -1.86667,-1.0667 -3.73334,-1.8667 -1.6,-1.0666 -3.46666,-1.8666 v -0.2667 q -1.6,-2.1333 -3.46667,-4 -1.6,-1.8667 -3.2,-4 -5.6,-6.4 -10.66667,-13.3333 -4.8,-6.9334 -5.6,-15.4667 -4,-14.4 -4,-30.4 0,-9.0667 1.06667,-18.4 1.33333,-9.3333 4.26667,-18.6667 2.13333,-6.9333 5.33333,-13.3333 3.2,-6.4 6.66667,-12.5333 1.86666,-3.2 3.46666,-6.4 1.86667,-3.2 3.46667,-6.4 v -0.2667 q 1.33333,-1.6 2.93333,-2.4 1.6,-1.0667 3.2,-1.8667 1.86667,-0.8 3.2,-1.6 1.33334,-1.0666 2.66667,-2.4 3.46667,-2.6666 7.46667,-4.2666 2.13333,-1.0667 4,-2.1334 1.86666,-1.0666 3.73333,-2.6666 h 0.26667 q 3.46666,-0.2667 7.2,-1.6 1.33333,-0.5334 2.66666,-0.8 1.33334,-0.2667 2.66667,-0.5334 z m -0.8,3.2 q -0.8,0.2667 -1.6,0.5334 -0.53333,0 -1.33333,0.2666 -1.86667,0.5334 -3.46667,1.0667 -1.6,0.5333 -3.73333,0.8 -2.13334,1.8667 -4.53334,3.2 -2.4,1.0667 -4.8,2.4 -2.66666,1.3333 -5.33333,2.9333 -2.66667,1.3334 -5.06667,3.4667 v 0.2667 h -0.26666 q -6.66667,1.6 -10.13334,11.4666 -7.46666,11.2 -12,22.1334 -4.53333,10.9333 -6.66666,22.1333 -1.06667,5.6 -1.6,11.4667 -0.53334,5.6 -0.53334,11.4666 0,21.3334 7.46667,40 l 0.53333,0.8 q 2.66667,4.5334 6.13334,9.6 3.46666,5.0667 7.46666,9.6 4,4.2667 8.8,7.7334 4.8,3.4666 10.4,4.5333 1.6,0.5333 2.66667,1.0667 1.33333,0.5333 2.13333,1.0666 1.06667,0.2667 2.4,-0.2666 h 0.26667 0.26667 q 1.06666,1.3333 2.66666,1.6 1.6,0.2666 2.93334,0.8 l 1.33333,0.2666 h 0.26667 q 4.26666,2.1334 9.06666,3.4667 5.06667,1.0667 10.4,-0.2667 14.66667,2.4 29.86667,-14.4 0.53333,-0.5333 1.06666,-1.3333 0.8,-0.8 1.6,-1.3333 1.33334,-1.3334 2.66667,-2.9334 1.33333,-1.6 2.66667,-2.9333 -0.26667,-0.2667 -0.53334,-0.2667 -0.53333,0 -0.8,0.2667 0,0 -0.53333,0 -2.4,0 -2.66667,1.6 v 0.2667 q -1.6,0.5333 -2.93333,1.8666 -1.06667,1.3334 -2.13333,2.6667 -1.33334,1.8667 -2.93334,3.2 -1.6,1.3333 -4,1.8667 -1.6,1.6 -3.46666,2.1333 -1.86667,0.5333 -4,1.0667 -1.33334,0.5333 -2.66667,0.8 -1.33333,0.2666 -2.4,1.0666 h -0.26667 l -11.99999,0.5334 h -0.26667 q -1.33333,-0.5334 -2.93333,-0.5334 -1.6,-0.2666 -3.46667,-0.5333 -2.93333,-0.2667 -5.6,-0.5333 -2.66667,-0.5334 -5.06667,-1.8667 -15.2,-2.4 -28.53333,-13.8667 -2.4,-4 -5.06667,-8 -2.93333,-4.2666 -5.33333,-8.5333 -2.4,-4.2667 -3.46667,-9.3333 -5.6,-23.2 -5.6,-41.3334 0,-20 6.66667,-34.4 2.4,-5.0666 4.53333,-9.8666 2.13334,-5.3334 4.8,-10.4 2.66667,-5.3334 8,-9.0667 18.4,-16.5333 41.86667,-18.1333 14.13333,0 21.86666,8.2666 l 1.86667,0.8 q 2.13333,0.8 3.73333,1.3334 1.86667,0.2666 4.26667,-0.2667 -0.53333,-0.2667 -1.06667,-0.8 l -0.26666,-0.2667 q -3.73334,-2.6666 -7.73334,-4.8 -3.73333,-2.1333 -8,-1.3333 h -0.26666 q -5.33334,-3.4667 -11.2,-3.7333 -5.6,-0.5334 -11.73333,-0.5334 z m 21.33333,5.6 q -15.2,-2.6666 -30.13333,3.2 -14.93333,5.8667 -26.13333,18.9334 0,0.2666 -0.53334,1.3333 l -0.53333,1.0667 q -5.86667,11.2 -10.93333,22.9333 -5.06667,11.7333 -5.06667,25.0667 0.53333,10.1333 1.33333,19.7333 0.8,9.6 2.66667,18.4 2.13333,8.8 5.6,17.0667 3.73333,8 9.6,15.2 5.86667,4.2666 12,7.7333 6.4,3.4667 13.86667,4.5333 h 0.26666 q 5.33334,2.9334 12.26667,3.4667 7.2,0.2667 14.66666,-0.2667 2.13334,-0.5333 3.46667,-0.8 2.93333,-0.5333 5.33333,-1.3333 2.66667,-1.0667 4.53334,-3.2 h 0.26666 q 1.06667,0.2667 1.86667,-0.2667 1.06667,-0.8 1.86667,-1.6 l 1.33333,-1.3333 h 0.26667 0.26666 l 0.26667,0.2667 q 0.53333,-0.5334 1.6,-1.6 1.06667,-1.3334 2.4,-2.6667 l 2.93333,-2.9333 q 0,0 0.26667,-0.5334 v -0.2666 q -0.26667,-0.2667 -0.53333,-0.2667 h -0.26667 l -0.26667,-0.2667 q -0.53333,-2.9333 -2.13333,-5.6 -1.6,-2.6666 -3.2,-5.0666 -1.33333,-1.8667 -2.4,-3.4667 -1.06667,-1.8667 -1.86667,-4 -2.13333,-2.1333 -4,-1.0667 -1.86666,0.8 -4,2.1334 -1.33333,1.0666 -2.93333,2.1333 -1.33333,0.8 -2.93333,0.8 -1.6,-0.5333 -3.2,-0.5333 -1.6,-0.2667 -3.2,-0.5334 -3.73333,-0.5333 -7.73333,-1.3333 -3.73334,-0.8 -6.93334,-3.4667 -3.73333,-2.4 -7.73333,-5.3333 -3.73333,-2.9333 -7.2,-6.6667 -3.46667,-4 -5.86667,-8.5333 -2.4,-4.5333 -2.93333,-9.8667 v -0.8 q 0,-0.5333 0,-1.0666 0.26667,-0.8 0.26667,-1.3334 0,-0.5333 0,-1.0666 0.26666,-0.5334 0.26666,-1.0667 0,-0.5333 -0.53333,-2.6667 h -0.26667 v -0.2666 q 0.8,-6.6667 2.13334,-13.6 1.6,-6.9334 3.73333,-14.6667 1.33333,-7.7333 6.66667,-12.2667 5.6,-4.8 11.73333,-8.5333 l 1.6,-1.0667 q 6.13333,-2.9333 12.53333,-2.6666 6.4,0.2666 11.46667,3.2 1.06666,-3.7334 2.4,-7.2 1.6,-3.7334 2.93333,-7.4667 1.6,-3.4667 3.46667,-8.2667 -0.8,0 -1.33334,-1.0666 v -0.8 -0.5334 q -1.6,-0.2666 -2.93333,-1.0666 -1.06667,-1.0667 -2.4,-2.4 -1.33333,-1.3334 -2.93333,-2.4 -1.33334,-1.3334 -3.46667,-0.8 h -0.26667 l -0.53333,-0.5334 z m 16.8,111.2 q -0.53333,1.0667 -1.6,4.5334 -0.8,3.2 -0.8,3.4666 0.8,1.3334 2.4,1.3334 l 0.8,0.2666 v 0.2667 q 2.13333,3.7333 4.26667,7.7333 2.13333,3.7334 4.26666,7.4667 l 2.4,4.2667 q 0,0.5333 0.53334,1.0666 1.06666,0.5334 2.4,0 -0.26667,-1.0666 -1.06667,-1.8666 -0.53333,-0.8 -1.33333,-1.8667 -1.06667,-1.3333 -2.13334,-2.6667 -0.8,-1.6 -0.8,-3.4666 v -0.2667 q -2.4,-2.1333 -3.46666,-4.8 -1.06667,-2.9333 -1.86667,-5.8667 -0.53333,-2.4 -1.33333,-4.8 -0.8,-2.6666 -2.66667,-4.8 z m -39.73333,-72.5333 q -7.46667,5.3333 -11.2,13.6 -1.6,5.0667 -3.2,10.4 -1.33333,5.3333 -1.86667,10.4 v 0.2667 q -0.53333,2.9333 -1.06666,5.6 -0.26667,2.4 -0.26667,5.3333 0,5.6 1.6,10.6667 2.93333,10.9333 12.26667,17.8666 5.33333,4.2667 12.26666,7.7334 6.93334,3.4666 15.46667,3.7333 1.33333,-0.2667 2.13333,-0.8 1.06667,-0.8 2.13333,-1.6 1.33334,-1.0667 2.66667,-1.8667 1.33333,-0.8 3.2,-0.8 v -0.5333 q 0,-0.2667 0.26667,-0.2667 0.53333,-1.3333 0.8,-2.6666 0.53333,-1.3334 0.8,-2.6667 -3.73334,2.6667 -8.26667,3.2 -4.53333,0.5333 -8.8,0.5333 h -4 q -14.13333,0 -25.6,-14.6666 -3.73333,-9.0667 -4,-19.7334 -0.26666,-10.9333 2.93334,-21.8666 4,-8.5334 11.73333,-14.4 7.73333,-6.1334 15.73333,-7.2 7.2,-1.3334 12.26667,3.7333 v -3.7333 q -0.8,-2.9334 -3.2,-3.7334 -2.4,-1.0666 -5.33333,-1.6 l -3.2,-0.8 q -8.26667,0 -16.26667,5.8667 z m 42.93333,-29.8667 q -0.26667,0.2667 -0.53333,0.2667 h -0.53334 q -0.26666,0.2667 -0.26666,0.5333 0,0.2667 -0.26667,0.8 l -0.53333,1.0667 q -3.2,6.4 -6.13334,13.3333 -2.66666,6.6667 -3.46666,14.1334 0.53333,-1.3334 1.06666,-2.1334 0.53334,-1.0666 1.06667,-2.4 0.53333,-1.3333 1.33333,-2.9333 0.8,-1.6 1.33334,-3.2 2.93333,-4.8 5.6,-9.6 2.93333,-5.0667 5.6,-10.1333 -1.6,-0.2667 -4.26667,0.2666 z"
             style="font-style:normal;font-variant:normal;font-weight:normal;font-stretch:normal;font-size:266.66665649px;font-family:'Key Tab Metal';-inkscape-font-specification:'Key Tab Metal';fill:#4e4e4e;fill-opacity:1;stroke:#4e4e4e;stroke-width:7;stroke-linecap:round;stroke-linejoin:round;stroke-miterlimit:4;stroke-dasharray:none;stroke-opacity:1"
             id="path2130" />
          <path
             d="m -591.90046,1100.7309 q 3.73333,-1.0667 7.73333,-0.8 4,0 7.73333,0.5333 5.06667,0.8 9.6,0.8 h 0.26667 q 0.8,0.8 2.4,0.8 h 0.26667 q 10.4,4.2667 15.46666,10.4 5.33333,5.8667 7.46667,10.6667 1.86666,3.7333 3.2,7.2 0.8,1.8667 1.33333,3.7333 0.8,1.6 1.86667,3.2 0.53333,1.0667 0.53333,2.6667 0,1.8667 -0.26667,2.9333 -0.53333,2.1334 -0.53333,3.2 v 0.5334 q -0.53333,7.4666 -2.13333,14.4 -1.6,6.6666 -3.46667,13.6 l -3.2,11.2 q -0.8,3.2 -2.13333,6.6666 -1.33334,3.4667 -3.46667,6.6667 -2.13333,3.2 -5.06666,5.8667 -2.93334,2.4 -6.93334,3.7333 v 0.2667 q -2.4,0.2666 -5.86666,1.3333 -3.2,1.0667 -6.66667,1.6 -3.2,0.8 -6.13333,0 -2.13334,0.5333 -4.26667,0 -1.86667,-0.2667 -4,-0.8 -1.33333,-0.5333 -2.93333,-0.8 -1.6,-0.2667 -3.2,-0.2667 h -0.26667 v -0.2666 q -2.4,-1.6 -5.33333,-2.4 -2.13334,-0.8 -4.26667,-1.6 -2.13333,-1.0667 -3.46667,-3.4667 -9.33333,-4.8 -15.2,-14.1333 -5.6,-9.6 -5.6,-19.7334 -0.26666,-1.8666 -0.26666,-3.7333 0,-1.8667 0,-3.7333 0,-20 10.13333,-36.2667 1.6,-3.7333 4.26667,-7.4667 2.66666,-4 5.6,-7.4666 0.8,-1.0667 1.33333,-1.8667 0.8,-0.8 1.6,-1.8667 2.4,-2.1333 5.33333,-2.9333 2.93334,-1.0667 5.86667,-1.8667 z m 27.46666,4.2667 q -9.06666,-1.8667 -18.66666,-2.1334 -9.6,-0.2666 -18.13334,3.4667 -0.26666,0.2667 -0.53333,0.2667 0,0 -0.26667,0.2666 l -0.53333,0.5334 q -1.6,1.3333 -3.2,2.9333 -1.33333,1.3333 -2.4,3.4667 -5.6,5.8666 -8.8,13.0666 -2.93333,6.9334 -5.6,13.8667 -0.53333,1.0667 -0.8,1.8667 -0.26667,0.5333 -0.26667,0.8 0,0.2666 -0.26666,0.5333 -0.26667,0.2667 -0.26667,0.5333 -1.6,9.6 -1.6,17.6 0,5.6 0.8,10.6667 1.33333,7.7333 4.53333,13.8667 3.46667,5.8666 8.8,10.1333 1.33334,0.5333 2.66667,1.6 1.6,0.8 2.93333,1.8667 1.6,1.3333 3.2,2.4 1.6,0.8 3.46667,1.3333 h 0.26667 q 1.86666,2.1333 4.26666,2.9333 2.66667,0.5334 5.6,1.0667 1.06667,0.2667 2.13334,0.5333 1.06666,0 2.13333,0.5334 4.53333,0.8 8.26667,0 4,-0.5334 8,-1.3334 1.6,-0.5333 3.2,-0.8 1.6,-0.2666 3.2,-0.5333 6.93333,-2.4 10.66666,-8.8 3.73333,-6.4 6.13333,-14.1333 1.6,-8 4,-15.2 1.86667,-6.4 3.2,-12.8 0.53334,-1.6 0.53334,-2.9334 0,-1.6 0,-3.2 0,-2.1333 0,-4 0.26666,-2.1333 0.8,-4.2666 -2.4,-5.0667 -4,-9.8667 -1.33334,-3.4667 -2.93334,-6.9333 -1.33333,-3.4667 -3.46666,-6.6667 h -0.26667 q -3.73333,-3.7333 -8,-7.2 -4.26666,-3.7333 -8.8,-5.3333 z m -26.93333,0 q 2.93333,-2.1334 6.13333,-1.6 3.46667,0.2666 6.4,1.3333 1.86667,0.5333 3.46667,1.0667 1.86667,0.5333 3.73333,0.5333 2.13334,-0.8 4,0.2667 1.86667,0.8 3.46667,2.1333 1.86667,1.3333 3.73333,2.4 h 0.26667 q 12.8,6.4 17.6,20.5333 2.13333,7.7334 2.13333,16.5334 0,4.8 -0.8,10.4 -0.8,2.9333 -1.6,5.8666 -0.53333,2.6667 -1.06667,5.6 -1.33333,6.6667 -3.2,13.0667 -1.86666,6.4 -6.39999,11.4667 -1.6,3.7333 -4.53334,5.6 -2.93333,1.8666 -6.13333,3.2 -2.93333,1.0666 -4.8,2.1333 l -0.26667,0.2667 q -0.8,0 -1.86666,0.2666 -0.8,0 -1.86667,0 -2.93333,0.5334 -6.13333,0.8 -2.93334,0.2667 -5.33334,-0.8 -4.26666,-0.5333 -9.06666,-1.8666 -4.8,-1.3334 -9.33334,-3.7334 -4.53333,-2.4 -8.53333,-5.6 -4,-3.4666 -6.66667,-8.2666 -4.8,-13.6 -4.8,-28 0,-11.2 3.2,-20.5334 2.4,-11.2 10.13334,-20.2666 8,-9.0667 18.13333,-12.8 z m 4.8,1.6 q -9.33333,1.3333 -16,8.5333 -6.66667,7.2 -12,15.2 -5.33333,12.2667 -5.33333,27.2 v 1.0667 q 0,6.9333 1.06666,13.8666 1.06667,6.6667 3.2,12.8 2.93334,5.6 8.26667,8.8 5.6,3.2 10.93333,5.6 l 1.06667,0.5334 q 0.26667,0.2666 0.26667,0.2666 0.26666,0 0.53333,0.2667 l 0.26667,0.2667 q 0,0 2.13333,0.5333 2.13333,0.2667 4.53333,0.8 2.66667,0.5333 4.8,1.0667 2.13334,0.5333 2.13334,0.5333 0,0 1.6,-0.2667 1.86666,-0.2666 3.73333,-0.2666 2.13333,-0.2667 3.73333,-0.2667 1.86667,-0.2667 1.86667,-0.2667 0,0 1.6,-0.8 1.6,-1.0666 3.46667,-1.8666 2.13333,-1.0667 3.73333,-1.8667 1.86667,-0.8 1.86667,-0.8 1.6,-1.8667 2.66666,-3.7333 1.33334,-1.8667 2.66667,-4 0.8,-1.3334 1.33333,-2.4 0.8,-1.0667 1.86667,-2.4 l 0.8,-2.9334 q 2.4,-8.2666 4.53333,-17.0666 2.13333,-9.0667 2.13333,-17.8667 0,-6.4 -1.6,-12.5333 -1.6,-6.1334 -5.59999,-11.4667 -5.86667,-5.6 -12,-9.8667 -5.86667,-4.2666 -13.06667,-4.8 -1.86667,0.5334 -3.46667,0 -1.33333,-0.5333 -2.66666,-1.0666 -1.33334,-0.5334 -2.66667,-0.8 -1.06667,-0.5334 -2.4,0 z m -2.4,25.6 q 2.13333,-1.3334 5.06667,-1.0667 2.93333,0 5.06666,1.3333 2.66667,0.8 4.53334,2.6667 1.86666,1.6 4,3.4667 0.8,0.8 1.33333,1.6 0.8,0.8 1.6,1.3333 1.86667,2.1333 2.4,4.5333 0.53333,2.4 0.53333,5.0667 0,1.6 -0.26666,3.4667 0,1.6 -0.26667,3.4666 l -0.8,6.4 q -0.53333,8.5334 -10.4,12 -9.6,3.7334 -18.4,-2.9333 -2.4,-2.9333 -3.2,-6.1333 -0.8,-3.4667 -1.33333,-7.2 -0.26667,-1.8667 -0.53334,-3.4667 -0.26666,-1.8667 -0.8,-4 h -0.26666 q 0.8,-5.3333 3.2,-11.2 2.4,-6.1333 8.53333,-9.3333 z m -8.53333,22.1333 q 0,10.1333 6.13333,17.8667 3.73333,2.4 8.26667,2.4 4.8,-0.2667 9.33333,-2.4 4,-2.1334 4.8,-6.4 1.06667,-4.2667 1.33333,-8.8 0,-1.8667 0,-3.4667 0.26667,-1.6 0.53334,-3.2 -0.53334,-0.8 -1.06667,-1.8667 -0.26667,-1.0666 -0.8,-2.1333 -0.8,-2.1333 -2.13333,-4.2667 -1.06667,-2.1333 -3.2,-3.4666 -4.53334,-4 -13.33334,-4 -6.4,4 -8,9.3333 v 0.2667 q -0.8,2.4 -1.33333,5.0666 -0.53333,2.6667 -0.53333,5.0667 z m 10.66666,-18.4 v 0.2667 q 8.26667,0.8 15.2,7.7333 1.86667,2.9333 2.93334,6.6667 1.33333,3.4666 0,7.2 -2.13334,4.5333 -5.06667,8.5333 -2.93333,4 -8,5.3333 -2.93333,-0.5333 -6.13333,-1.0666 -2.93334,-0.8 -4.53334,-3.7334 l -3.2,-7.7333 q 0.26667,-1.3333 0.26667,-2.4 0.26667,-1.3333 0.26667,-2.6667 0.53333,-5.3333 1.6,-10.1333 1.06666,-4.8 6.4,-7.7333 z m 6.66667,5.8667 q -1.33333,-1.0667 -2.93333,-1.6 -1.6,-0.8 -3.46667,-0.2667 -4.26667,2.9333 -5.06667,7.7333 -0.8,4.8 -0.8,9.3334 v 0.8 q 0,0.5333 -0.26666,0.8 0,0.2666 0,0.5333 1.33333,1.6 1.86666,3.4667 0.53334,2.4 1.86667,3.7333 2.13333,1.3333 5.06667,1.8667 3.2,0.5333 5.86666,-1.3334 2.13334,-2.4 4.53334,-5.6 2.66666,-3.4666 2.66666,-7.7333 0,-1.0667 -0.26666,-1.6 v -0.2667 q -1.06667,-2.4 -2.13334,-4.5333 -1.06666,-2.1333 -3.2,-3.7333 -1.06666,-0.2667 -1.86666,-0.5334 -0.8,-0.5333 -1.86667,-1.0666 z"
             style="font-style:normal;font-variant:normal;font-weight:normal;font-stretch:normal;font-size:266.66665649px;font-family:'Key Tab Metal';-inkscape-font-specification:'Key Tab Metal';fill:#4e4e4e;fill-opacity:1;stroke:#4e4e4e;stroke-width:7;stroke-linecap:round;stroke-linejoin:round;stroke-miterlimit:4;stroke-dasharray:none;stroke-opacity:1"
             id="path2132" />
          <path
             d="m -458.89631,1086.5976 q 4.26667,-1.6 9.06667,-1.6 5.06666,0 9.86666,1.8666 4.8,1.6 8.8,4.8 4.26667,2.9334 7.2,7.2 v 0.2667 q 0.53334,1.6 1.33334,2.9333 0.8,1.3334 1.6,2.6667 1.06666,1.6 1.86666,3.2 1.06667,1.6 1.06667,3.7333 0,0.8 -0.26667,1.3334 0.53334,1.6 0.8,3.4666 0.26667,1.8667 0.53334,3.7334 0.53333,1.8666 0.53333,3.7333 0.26667,1.8667 0.8,3.4667 0.8,6.4 1.06667,12.5333 0.26666,6.1333 0.26666,12.2667 0,10.9333 -0.8,21.6 -0.53333,10.6666 -1.33333,21.8666 l -0.26667,0.5334 q 0.26667,0.2666 0.26667,1.0666 0,1.6 -0.53333,4.2667 -0.53334,2.6667 -0.53334,4 v 1.6 l 0.26667,0.2667 h -0.26667 q -2.13333,1.8666 -4.26666,1.8666 -2.13334,0 -4.26667,-0.2666 -1.06667,-0.2667 -2.13333,-0.5334 -1.06667,0 -2.13334,0.2667 h -8.53333 q -5.6,0.2667 -11.46667,0.5333 -5.59999,0.2667 -11.19999,1.8667 l -0.26667,0.2667 v -0.2667 q -0.8,-0.8 -0.8,-1.8667 0,-0.5333 0,-0.8 0.26667,-0.5333 0.26667,-1.0666 0.26666,-0.5334 0.26666,-1.6 0,-1.0667 -0.26666,-1.3334 l -0.26667,-0.2666 q -1.33333,-5.8667 -1.6,-11.7334 -0.26667,-6.1333 -0.8,-12.5333 -0.26667,-5.6 -0.8,-11.2 -0.26667,-5.6 -1.33333,-10.9333 -0.8,-4.2667 -2.66667,-8.8 -1.86667,-4.8 -6.93333,-6.1334 -1.86667,1.3334 -2.4,5.3334 v 5.8666 q -0.26667,6.1334 -0.53334,12.2667 -0.26666,6.1333 -0.26666,12.2667 0,4.2666 0,8.5333 0.26666,4 0.53333,8.5333 0,1.0667 0,2.1334 0,1.0666 -0.26667,2.4 0,3.4666 -0.8,6.6666 -0.53333,2.9334 -3.46666,4.8 l -0.26667,0.2667 q -2.13333,0.2667 -4,0 -1.86667,-0.2667 -3.73333,-0.5333 -1.33334,-0.2667 -2.4,-0.5334 -0.8,0 -2.13334,0 -6.4,1.0667 -13.06666,1.6 -3.73334,0.5334 -7.73334,0.8 -3.73333,0.5334 -7.46666,1.6 h -0.26667 v -0.2666 q -0.53333,-1.0667 -0.53333,-1.6 0,-0.8 1.06666,-1.8667 0.53334,-0.5333 0.53334,-0.8 -0.26667,0 -0.26667,-0.2667 0,0 -0.26667,-0.5333 0,-0.2667 -0.26666,-0.5333 0,-0.2667 0,-0.5334 v -0.5333 l 0.8,-0.8 v -1.3333 q 0,-2.1334 0.26666,-3.2 0.26667,-0.8 0.26667,-1.3334 0.26667,-0.8 0.26667,-1.6 0,-0.5333 -0.26667,-0.8 0.53333,-6.4 0.53333,-13.0666 0.26667,-6.6667 0.53334,-13.3334 0,-4.5333 0,-8.8 0.26666,-4.2666 0.26666,-8.8 1.06667,-6.1333 1.33334,-12 0.53333,-5.8666 0.53333,-11.7333 0,-13.3333 -2.4,-25.3333 0.26667,-0.5334 0.26667,-1.3334 0,-1.3333 -0.26667,-2.9333 -0.26667,-1.6 -0.8,-2.9333 -0.53333,-1.3334 -1.06667,-2.9334 -0.26666,-1.6 -0.26666,-2.9333 v -0.5333 l 0.8,0.2666 q 1.33333,0.5334 2.4,0.5334 1.33333,-0.2667 2.66666,-0.8 1.33334,-0.2667 2.13334,-0.5334 1.06666,-0.2666 2.4,0 5.6,-0.8 10.93333,-1.0666 5.33333,-0.2667 10.66667,-0.5334 2.93333,-0.2666 6.13333,-0.2666 3.2,0 6.4,-0.2667 h 0.26667 q 0.53333,0.2667 2.4,0.2667 1.06666,0 1.6,0.2666 h 0.53333 l -0.26667,0.2667 v 0.8 q 0,1.0667 1.06667,3.2 0,0.2667 0.53333,1.3333 0.53334,-0.5333 1.06667,-1.0666 0.8,-0.5334 1.33333,-1.0667 2.93334,-2.1333 5.86667,-4 3.2,-2.1333 6.93333,-2.9333 z m -25.33333,5.6 q -2.93333,0.5333 -6.13333,0.8 -2.93334,0 -5.86667,0 -4.53333,-0.5334 -8.53333,0.2666 -1.33334,0.2667 -2.4,0.2667 -1.06667,0 -2.4,0 -2.4,0.2667 -4.53334,0.5333 -2.13333,0.2667 -4,1.0667 1.06667,0.8 2.66667,0.8 2.93333,0.8 5.86667,0.8 2.93333,0 5.86666,-0.2667 3.2,-0.2666 6.4,-0.2666 3.2,-0.2667 6.4,0.8 1.86667,-1.0667 4.26667,-1.3334 2.66667,-0.5333 5.06667,0 0.53333,-0.5333 0.53333,-0.8 1.33333,-1.3333 1.33333,-2.1333 v -0.2667 h -2.66666 q -1.06667,0 -1.86667,-0.2666 z m -35.46667,84 q 0,2.4 0,4.8 0,2.4 -0.26666,4.5333 0,2.9333 -0.26667,5.6 0,2.6667 -0.26667,5.6 -0.26666,2.4 -0.26666,4.8 0,2.4 0,4.5333 2.13333,-2.1333 2.66666,-4.8 0.53334,-2.6666 0.53334,-5.6 v -3.2 l -0.26667,-2.9333 q 0,-1.8667 -0.26667,-3.4667 0,-1.6 0,-3.4666 0,-1.8667 0,-3.4667 0.26667,-1.8667 0.26667,-3.4667 0,-1.8666 0,-3.4666 0.26667,-1.8667 0.26667,-3.7334 0,-1.6 -0.26667,-2.6666 1.33333,-8.5334 1.6,-16.8 0.26667,-8.5334 0.26667,-16.8 0.26666,-5.8667 0.26666,-11.7334 0,-6.1333 0.53334,-12.2666 l 0.26666,-0.2667 q 0,-0.8 -0.53333,-1.8667 -0.53333,-1.6 -0.53333,-2.1333 0,-0.5333 0.8,-1.8667 v -1.0666 -1.0667 q -0.53334,-0.8 -1.6,-1.0667 -0.8,-0.2666 -1.86667,-0.5333 -1.6,-0.5333 -2.13333,-0.8 1.06666,8.2667 1.86666,16.8 1.06667,8.5333 1.06667,17.0667 0,2.4 0,4.8 0,2.4 -0.53333,4.5333 -0.8,5.0667 -1.06667,10.4 -0.26667,5.0667 -0.26667,10.4 v 7.4667 z m 40,-62.6667 q -0.8,0 -1.6,-0.8 h -0.26666 q -0.26667,-3.4667 -0.26667,-6.1333 v -6.1334 q 0,-0.2666 -0.53333,-0.8 -0.26667,-0.2666 -0.8,-1.3333 -0.53334,0 -1.06667,0.2667 -0.53333,0 -1.06667,0 -0.53333,0.2666 -1.6,0.2666 -0.53333,0.8 -1.33333,1.0667 -0.8,0.2667 -1.33333,0.5333 l -0.53334,0.2667 -0.26666,-0.2667 q -5.06667,-2.1333 -10.13334,-1.8666 -4.8,0.2666 -8.53333,0.8 -1.33333,1.0666 -3.46667,1.0666 0.26667,1.8667 0.26667,3.7334 0.26667,1.8666 0.26667,4 0,2.9333 -0.26667,6.1333 -0.26667,3.2 -0.53333,6.1333 -0.26667,2.9334 -0.53334,5.8667 -0.26666,2.9333 -0.26666,5.8667 v 1.3333 q 0,0.8 0,1.6 0.26666,0.5333 0.26666,1.3333 0,6.4 -0.26666,12.8 -0.26667,6.4 -0.8,12.5334 -0.53334,6.1333 -0.8,12.5333 -0.26667,6.1333 -0.26667,12.5333 v 5.3334 l 0.53333,0.5333 0.26667,0.2667 -0.26667,0.2666 v 1.3334 q 0,0.8 0.53334,2.9333 0.53333,1.6 0.53333,2.6667 0,0.8 -0.26667,1.0666 1.86667,-0.2666 3.73334,-0.5333 1.86666,-0.2667 3.73333,-0.8 3.73333,-0.8 7.46667,-1.3333 3.73333,-0.5334 7.73333,0 0.26667,-0.2667 1.06667,-0.2667 0.8,0 1.86666,0.5333 0,-2.1333 0,-4.2666 0.26667,-2.4 0.26667,-4.5334 0.8,-10.4 0.8,-20 0,-1.6 0,-3.2 0,-1.8666 -0.26667,-3.7333 1.86667,-7.4667 1.86667,-17.0667 0,-2.1333 0,-4.5333 0,-2.4 -0.53333,-4.8 v -0.2667 l 3.2,-2.1333 q 5.06666,-1.6 9.33333,-1.8667 4.53333,-0.2666 8.8,3.7334 3.73333,3.7333 4.8,8.5333 1.06667,4.8 1.86667,9.6 0.26666,1.3333 0.26666,2.6667 0.26667,1.3333 0.53334,2.6666 v 2.4 q 0,3.7334 0.53333,7.7334 0.8,3.7333 1.6,7.4666 0.8,4 1.33333,8.2667 0.8,4 0.8,8.2667 0,1.3333 0,2.6666 0,1.3334 -0.26666,2.6667 6.39999,-1.0667 13.06666,-1.8667 6.93333,-0.8 13.6,-0.2666 0,-0.2667 -0.26667,-0.2667 0,-0.2667 0,-0.5333 0,-1.0667 -0.53333,-1.6 h -0.26667 v -0.2667 q 0.26667,-1.6 0.26667,-3.2 0,-1.8667 0,-3.7333 0,-2.1334 0,-4.5334 0,-2.4 -0.26667,-4.8 v -10.4 -7.7333 q 1.33334,-4 1.6,-8 0.26667,-4.2667 0.26667,-8.8 0,-1.8667 -0.26667,-3.4667 0,-1.8666 0,-3.7333 v -7.2 q 0,-2.4 0,-4.8 0,-2.6667 0.26667,-5.0667 -1.06667,-4 -2.66667,-8.5333 -1.33333,-4.5333 -3.73333,-8.5333 -5.6,-3.4667 -10.4,-4.2667 v -0.2667 h -0.26667 q -4,-1.6 -8,-1.6 -3.73333,0 -7.46666,1.0667 -3.73333,1.0667 -7.2,3.2 -3.2,1.8667 -5.6,4 l -1.6,1.6 q -1.33333,1.0667 -2.4,2.1333 -1.06667,1.0667 -1.6,2.9334 l -0.26667,0.2666 q -0.53333,0 -1.06666,1.0667 -0.26667,1.0667 -1.33334,1.6 z m 13.33334,26.4 q -2.66667,-3.7333 -7.46667,-4 -4.53333,-0.5333 -8.26667,1.6 1.86667,1.3333 2.93334,3.2 0.53333,-0.5333 1.06666,-0.8 0.8,-0.5333 1.33334,0 3.73333,-0.2667 5.6,2.4 2.13333,2.4 3.73333,5.0667 l 0.8,1.6 v 0.2666 q 2.13333,7.7334 2.93333,15.7334 1.06667,7.7333 1.6,15.4666 0.53334,5.3334 0.8,10.9334 0.53334,5.6 1.33334,11.2 l 0.26666,-0.2667 q 2.13334,-1.6 2.66667,-3.4667 0.53333,-2.1333 0.53333,-4.2666 0,-1.0667 0,-1.8667 0,-1.0667 -0.26666,-2.4 0,-1.0667 -0.26667,-1.8667 0,-1.0666 0,-2.4 v -1.3333 q -1.6,-4.5333 -2.13333,-9.3333 -0.53334,-4.8 -0.8,-9.8667 -0.53334,-6.6667 -1.6,-13.3333 -1.06667,-6.6667 -4.8,-12.2667 z m -40.8,63.4667 q -2.4,0.5333 -5.06667,1.0666 -2.4,0.5334 -4.8,0.8 -0.26667,0.2667 -2.13333,2.9334 -1.86667,2.4 -2.4,3.2 1.6,-0.2667 5.6,-0.8 4.26666,-0.2667 8.53333,-0.8 4.8,-0.5334 10.66667,-1.3334 1.33333,-0.2666 2.4,0 1.06666,0 2.4,0.2667 1.6,0.2667 2.93333,0.2667 1.6,0.2666 2.93333,-0.2667 0.26667,-0.2667 0.26667,-0.8 0,-0.5333 -1.06667,-1.0667 l -1.06666,-1.0666 q -0.8,-0.5334 -1.06667,-1.8667 -0.8,-2.1333 -2.66667,-1.8667 v 0.2667 -0.2667 q -4,-1.0666 -8,-0.2666 -3.73333,0.5333 -7.46666,1.6 z m 24.53333,-62.1334 q -1.33333,15.7334 -2.13333,28.5334 -0.53334,12.5333 -0.53334,26.4 0.26667,0.2666 0.26667,0.8 0,0.5333 -0.26667,1.3333 0,0.5333 0,1.0667 0,0.5333 -0.26666,1.3333 0,0.5333 0,1.0667 0,3.2 2.4,4.2666 0.8,-6.6666 0.8,-14.1333 0,-4 -0.26667,-7.7333 0,-4 -0.26667,-8 0.26667,-9.0667 0.8,-16 0.26667,-6.1334 0.53334,-10.9334 0.26666,-4.8 0.26666,-5.0666 -0.26666,-0.2667 -0.26666,-0.5334 0,-0.2666 -0.26667,-0.8 0,-0.8 -0.8,-1.6 z m 56,59.4667 q -5.33334,-1.0667 -10.4,-0.5333 -4.8,0.5333 -9.33334,1.0666 -1.33333,1.0667 -2.93333,1.0667 -1.6,0 -2.93333,0 -2.93333,0 -4.26667,0.2667 -0.53333,1.6 -1.06666,2.4 -0.26667,0.5333 -0.53334,1.3333 -0.26666,0.8 -0.26666,1.3333 h 0.53333 q 7.2,-1.0666 17.06666,-1.6 9.86667,-0.8 20,0 0,-0.8 -1.86666,-1.8666 -1.6,-1.0667 -1.86667,-2.1334 -0.26667,-0.2666 -1.06667,-0.2666 -1.06666,0 -1.06666,-1.0667 z m -50.93333,-105.3333 q -0.53334,0.5333 -0.8,1.3333 -0.26667,0.5333 -0.53334,0.5333 0,0.2667 0,3.4667 0.26667,2.9333 0.26667,4.8 0.8,-1.8667 1.33333,-3.4667 0.53334,-1.6 0.53334,-3.2 0,-1.8666 -0.8,-3.4666 z m 32.26666,-6.9334 q -2.13333,-0.2666 -5.33333,-0.2666 -3.2,0 -6.93333,1.0666 -3.73334,0.8 -7.73334,2.9334 -4,1.8666 -7.2,5.8666 0.26667,0 0.26667,0.2667 0,1.3333 -0.53333,2.4 -0.53334,0.8 -1.06667,1.8667 0.53333,-0.5334 1.06667,-0.8 0.53333,-0.5334 1.06666,-1.0667 1.6,-1.6 3.46667,-2.9333 1.86667,-1.6 4,-2.4 7.73333,-3.7334 17.33333,-2.1334 8.53333,1.6 16.8,6.1334 2.13333,3.2 3.2,6.6666 1.33333,3.4667 2.66667,7.2 0.26666,1.3334 0.53333,2.6667 0.26667,1.3333 0.8,2.6667 -0.26667,2.4 -0.53333,4.8 0,2.1333 0,4.5333 0,1.8667 0,3.7333 0.26666,1.8667 0.26666,3.7334 0,2.1333 0,4 0.26667,1.6 0.26667,3.7333 0,1.6 -0.26667,2.4 l -0.26666,5.3333 q -0.53334,5.3334 -1.06667,10.6667 -0.53333,5.0667 -0.53333,10.4 0,2.1333 0,4.2667 0.26666,1.8666 0.26666,4 0.53334,1.3333 0.53334,2.9333 0,1.3333 0,2.6667 v 1.8666 1.8667 q 0,1.0667 0,2.1333 0,1.0667 0.26666,2.1334 v 1.0666 q 0,4.5334 4,7.2 0.53334,-2.1333 0.53334,-4.5333 0,-2.4 0.26666,-4.5333 0,-5.0667 0.8,-9.8667 l 0.53334,-8.8 q 0.8,-12.8 0.8,-25.6 0,-10.6667 -1.06667,-20.8 -1.06667,-10.4 -4,-20.5333 -1.6,-1.3334 -2.66667,-2.9334 -0.8,-1.8666 -1.33333,-3.7333 l -0.26667,-0.8 q -6.66666,-8.8 -18.93333,-11.4667 z"
             style="font-style:normal;font-variant:normal;font-weight:normal;font-stretch:normal;font-size:266.66665649px;font-family:'Key Tab Metal';-inkscape-font-specification:'Key Tab Metal';fill:#4e4e4e;fill-opacity:1;stroke:#4e4e4e;stroke-width:7;stroke-linecap:round;stroke-linejoin:round;stroke-miterlimit:4;stroke-dasharray:none;stroke-opacity:1"
             id="path2134" />
          <path
             d="m -376.74212,1092.1976 q 7.73333,-3.2 16.53333,-4.5334 8.8,-1.3333 17.6,-0.2666 2.13334,0 3.73334,0.8 1.6,0.5333 3.2,1.3333 0.8,0.5333 2.93333,1.6 3.2,0.8 6.13333,2.9333 2.93334,2.1334 4.53334,5.0667 l 0.26666,0.2667 h -0.26666 q -0.8,3.4666 -1.86667,6.6666 -1.06667,3.2 -2.4,6.4 -1.33333,3.7334 -2.93333,7.4667 -1.33334,3.7333 -2.13334,7.4667 v 0.2666 q -0.53333,0.2667 -0.53333,0.8 0,0.2667 -0.26667,0.8 -0.53333,1.8667 -1.33333,2.1334 -0.53333,0.2666 -1.86667,-0.5334 l -0.26666,-0.2666 q -0.53334,-2.4 -2.66667,-3.2 -1.86667,-0.8 -4,-1.3334 -1.06667,-0.2666 -2.13333,-0.2666 -1.06667,-0.2667 -1.86667,-0.8 h -3.46667 q -1.33333,0 -2.66666,0 -1.06667,0 -2.13334,0.2666 1.86667,2.4 4,2.9334 2.4,0.5333 5.06667,0.8 2.13333,0 4.26667,0.5333 2.4,0.2667 4.53333,1.8667 8.26667,4.5333 13.33333,13.3333 5.06667,8.8 5.06667,18.9333 0,1.8667 -0.26667,2.6667 -0.26667,5.3333 -0.8,10.6667 -0.26667,5.0666 -1.6,9.8666 -3.2,11.7334 -11.2,16.8 -6.66666,6.1334 -13.06666,7.4667 -0.26667,0.2667 -1.33334,0.8 -0.53333,0.2667 -1.33333,0.8 l -0.26667,0.2667 q -15.2,3.4666 -29.06666,0 -13.86667,-3.2 -24.8,-12.8 h -0.53334 q -1.6,0.5333 -2.4,-0.8 l -0.26666,-0.2667 v -1.6 h 0.26666 q 1.06667,-2.9333 2.4,-5.8667 1.6,-2.9333 2.93334,-5.8666 2.66666,-5.0667 4.8,-9.8667 2.4,-5.0667 2.93333,-10.4 l 0.26667,-0.2667 h 0.26666 q 2.66667,-0.8 4.8,0.5334 2.13334,1.3333 4,3.2 1.06667,0.8 1.86667,1.8666 1.06667,0.8 2.4,1.3334 2.93333,1.6 5.6,1.0666 2.66667,-0.5333 5.6,-1.6 1.06667,-0.2666 1.86667,-0.5333 1.06666,-0.2667 2.13333,-0.5333 0.26667,-0.8 1.06667,-1.0667 0.26666,0 0.53333,-0.2667 l -0.26667,-0.2666 v -0.2667 h 0.53334 q 0.8,-0.2667 0.8,-1.3333 0.26666,-0.5334 0.26666,-1.0667 -0.8,-2.9333 -3.46666,-4 -2.4,-1.0667 -5.33334,-1.8667 -1.6,-0.5333 -2.4,-0.5333 -6.66666,-1.3333 -14.13333,-4.5333 -7.2,-3.4667 -10.66667,-10.4 -3.2,-6.6667 -3.2,-14.4 0,-13.0667 8.8,-24.8 1.33334,-4 4.26667,-6.6667 3.2,-2.6667 6.66667,-4.8 0.8,-0.5333 1.33333,-1.0667 0.8,-0.5333 1.6,-1.0666 z m -18.66667,91.2 q -1.86666,2.9333 -3.46666,6.4 -1.33334,3.2 -2.4,6.6666 1.06666,-0.5333 2.66666,-1.6 1.86667,-1.3333 3.2,-1.6 0,-0.5333 1.06667,-3.2 0.53333,-1.0666 1.06667,-2.4 1.33333,-3.7333 2.4,-7.4666 1.06666,-4 1.06666,-8 v -1.6 q -1.06666,3.2 -2.66666,6.4 -1.33334,3.2 -2.93334,6.4 z m 40.26667,-66.4 q -3.73333,-0.5334 -5.86667,1.6 -2.13333,2.1333 -3.46666,4.5333 0,0.2667 -0.26667,0.5333 0,0.2667 0,0.8 0,1.6 1.06667,2.6667 1.33333,1.0667 2.93333,2.4 1.33333,0.5333 2.4,0.8 1.33333,0.2667 2.66667,0.8 7.2,2.1333 13.86666,4.8 6.66667,2.6667 10.93334,9.6 l 1.86666,4 q 2.13334,5.3333 4,10.6667 1.86667,5.3333 1.86667,11.4666 0,2.4 -0.26667,3.7334 v 0.2666 q -4.53333,12.5334 -13.6,21.3334 -10.4,9.3333 -22.93333,9.8666 -9.33333,1.3334 -17.33333,-1.6 -8,-3.2 -15.73334,-7.4666 -0.8,-1.0667 -1.33333,-1.3334 -0.8,0 -1.86667,0.8 -1.06666,0.5334 -1.86666,1.0667 h -0.26667 q 0.8,1.3333 2.4,2.6667 1.6,1.0666 3.2,2.1333 0.8,0.5333 1.6,1.3333 1.06667,0.5334 1.86667,1.0667 5.86666,2.6667 12.8,4.2667 6.93333,1.6 14.13333,1.6 7.46667,0 14.66667,-2.4 7.2,-2.1334 13.6,-7.2 5.86666,-4.2667 9.06666,-11.4667 3.46667,-7.2 3.46667,-14.9333 v -0.8 -2.9334 -4.5333 q 0.26666,-1.3333 0.26666,-4.2667 0,-1.3333 0,-2.1333 0,-1.0667 -0.53333,-2.4 -1.33333,-7.7333 -5.06666,-13.6 -3.73334,-5.8667 -9.6,-9.3333 -2.13334,-2.1334 -4.8,-2.6667 -2.4,-0.5333 -5.33334,-0.8 -2.93333,-0.2667 -5.86666,-0.8 -2.93334,-0.5333 -5.06667,-3.4667 -0.53333,-0.8 -0.53333,-2.4 0,-1.6 0.8,-2.9333 h 0.26666 q 2.13334,-0.5333 4.26667,-0.5333 2.4,0 4.53333,0.2666 1.33334,0.2667 2.4,0.5334 1.33334,0 2.66667,0 l -4,-4 q -0.26667,0 -1.6,0 -1.06667,-0.2667 -2.4,-0.8 -1.6,-0.2667 -4,-0.8 z m 11.2,-20 q -2.93333,0.5333 -5.33333,0.5333 -2.4,0 -4.8,0 -2.93334,-0.2667 -6.13334,0 -2.93333,0 -6.13333,1.0667 v 0.2666 q -2.93333,0 -5.86667,1.3334 -2.66666,1.0666 -5.33333,2.6666 -3.73333,3.7334 -7.73333,8.8 -3.73334,5.0667 -4.8,11.2 0.8,11.7334 5.06666,19.4667 3.46667,3.2 7.46667,4.5333 4.26667,1.3334 8.53333,2.1334 5.6,1.3333 10.66667,3.2 5.33333,1.8666 8.26667,8 1.33333,3.2 1.33333,5.8666 0,5.3334 -3.2,9.3334 -5.06667,4.2666 -12.8,5.0666 -7.73333,0.5334 -13.86667,-2.4 h 0.26667 q -2.13333,-0.2666 -3.73333,-2.1333 -1.06667,-0.5333 -2.13334,-1.0667 -0.8,-0.8 -1.86666,-1.0666 -0.26667,2.1333 -1.06667,4.5333 -0.8,2.4 -1.6,4.5333 -1.06667,2.6667 -2.13333,5.3334 -0.8,2.6666 -0.8,5.3333 v 0.8 q 1.06666,0.5333 1.86666,1.0667 1.06667,0.5333 2.13334,1.0666 1.33333,0.5334 2.66666,1.3334 1.6,0.8 2.93334,2.1333 4.53333,2.9333 9.6,3.4667 5.33333,0.2666 10.4,0 h 4.53333 q 6.93333,-1.0667 12,-4.2667 5.33333,-3.2 9.06667,-7.2 3.73333,-4.2667 6.13333,-8.5333 2.66667,-4.2667 4,-7.7334 0.26667,-0.2666 0.26667,-0.8 0,-0.5333 -0.26667,-1.0666 0,-0.8 0,-1.3334 -0.26667,-0.8 -0.26667,-2.4 0,-1.3333 0.26667,-2.1333 -1.33333,-7.2 -4,-14.4 -2.66667,-7.2 -8.26667,-12 -3.2,-2.4 -6.93333,-3.7333 -3.46667,-1.3334 -7.2,-2.4 -3.73333,-1.0667 -7.46667,-2.1334 -3.73333,-1.3333 -6.66666,-4.2666 -1.06667,-2.6667 -1.06667,-3.7334 0,-4.2666 4,-8.2666 2.66667,-3.7334 6.13333,-3.4667 3.46667,0 6.66667,1.0667 1.33333,0.5333 2.66667,0.8 1.33333,0 2.66666,0.2666 1.06667,0 1.86667,0.8 0.8,0.5334 1.33333,1.0667 0.8,1.3333 1.6,1.3333 0.26667,0 0.26667,-0.2666 0.26667,-0.8 1.06667,-0.8 h 0.26666 q 0,-0.2667 0.26667,-0.8 0.26667,-0.5334 0.53333,-1.0667 l 0.53334,-1.0667 q 1.33333,-2.9333 2.4,-5.6 1.06666,-2.9333 1.33333,-5.8666 -0.26667,-0.2667 -1.86667,-1.8667 -1.6,-1.6 -1.6,-1.8667 z m -25.06667,-4.2667 q -1.33333,0.2667 -2.4,0.5333 -1.06666,0.2667 -2.13333,0.5334 -0.26667,0.2666 -1.6,1.0666 -1.06667,0.5334 -2.66667,1.6 l -4.26666,2.6667 q -5.33334,5.0667 -10.13334,13.0667 -4.53333,7.7333 -4.53333,18.4 0,1.6 0,3.2 0.26667,1.6 0.53333,3.2 1.33334,5.6 5.33334,10.4 4.26666,4.5333 10.13333,6.6666 h 0.26667 q 2.13333,1.3334 4.53333,1.8667 2.66667,0.5333 5.33333,1.0667 4.26667,0.5333 8,2.1333 4,1.3333 5.33334,6.6667 0.26666,0.2666 0.26666,0.5333 0,1.8667 -1.06666,3.4667 -1.06667,1.3333 -2.4,2.6666 l -1.33334,0.5334 q -2.66666,1.3333 -5.6,2.4 -2.93333,0.8 -5.86666,1.0666 5.06666,1.3334 10.66666,0.2667 5.86667,-1.0667 9.86667,-5.3333 1.06667,-1.8667 1.06667,-4.2667 0,-1.3333 -0.26667,-2.6667 -0.26667,-1.6 -0.8,-2.9333 -3.2,-5.0667 -7.73333,-6.6667 -4.53334,-1.6 -9.86667,-2.6666 -2.93333,-0.5334 -5.86667,-1.3334 -2.66666,-0.8 -5.33333,-2.1333 -5.06667,-1.6 -6.93333,-5.8667 -1.6,-4.5333 -2.93334,-9.0666 l -0.26666,-1.3334 q -1.06667,-2.9333 -1.06667,-6.6666 0,-4 1.06667,-8 1.33333,-4 3.73333,-6.9334 0.26667,-1.3333 1.06667,-2.1333 0.8,-1.0667 1.86666,-1.8667 1.86667,-1.6 2.66667,-3.2 v -0.2666 q 4.26667,-5.0667 12,-6.6667 7.73333,-1.6 14.66667,-2.1333 13.86666,-3.2 22.93333,5.0666 1.06667,-0.8 2.93333,-0.8 0.53334,-0.2666 1.33334,-0.2666 0.8,-0.2667 1.33333,-0.8 -0.26667,0 -0.8,-0.5334 l -0.26667,-0.2666 q -1.33333,-1.3334 -2.66666,-2.1334 -1.33334,-0.8 -2.93334,-0.8 h -0.26666 v -0.2666 q -3.46667,-2.6667 -7.46667,-3.2 -3.73333,-0.5334 -7.46667,-0.5334 -5.06666,-1.0666 -10.4,0.2667 -5.06666,1.0667 -9.6,2.4 z m 40.8,8.5333 q -0.53333,0.5334 -1.33333,0.8 -0.53333,0 -1.33333,0.5334 0.26666,0 0.26666,0.5333 0,0.2667 -0.8,1.0667 l -0.53333,0.5333 q -0.53333,2.9333 -1.6,5.6 -0.8,2.4 -1.86667,4.8 -0.53333,1.3333 -1.06666,2.9333 -0.53334,1.3334 -1.06667,2.6667 0,0.2667 1.33333,2.6667 1.6,2.1333 2.13334,2.9333 0.8,-2.4 1.6,-4.5333 1.06666,-2.4 1.86666,-4.5334 1.6,-4 2.93334,-8.2666 1.6,-4.2667 2.13333,-8.8 -1.06667,0.5333 -2.66667,1.0666 z"
             style="font-style:normal;font-variant:normal;font-weight:normal;font-stretch:normal;font-size:266.66665649px;font-family:'Key Tab Metal';-inkscape-font-specification:'Key Tab Metal';fill:#4e4e4e;fill-opacity:1;stroke:#4e4e4e;stroke-width:7;stroke-linecap:round;stroke-linejoin:round;stroke-miterlimit:4;stroke-dasharray:none;stroke-opacity:1"
             id="path2136" />
          <path
             d="m -270.02546,1100.7309 q 3.73333,-1.0667 7.73333,-0.8 4,0 7.73333,0.5333 5.06667,0.8 9.6,0.8 h 0.26667 q 0.8,0.8 2.4,0.8 h 0.26667 q 10.4,4.2667 15.46666,10.4 5.33333,5.8667 7.46667,10.6667 1.86666,3.7333 3.2,7.2 0.8,1.8667 1.33333,3.7333 0.8,1.6 1.86667,3.2 0.53333,1.0667 0.53333,2.6667 0,1.8667 -0.26667,2.9333 -0.53333,2.1334 -0.53333,3.2 v 0.5334 q -0.53333,7.4666 -2.13333,14.4 -1.6,6.6666 -3.46667,13.6 l -3.2,11.2 q -0.8,3.2 -2.13333,6.6666 -1.33334,3.4667 -3.46667,6.6667 -2.13333,3.2 -5.06666,5.8667 -2.93334,2.4 -6.93334,3.7333 v 0.2667 q -2.4,0.2666 -5.86666,1.3333 -3.2,1.0667 -6.66667,1.6 -3.2,0.8 -6.13333,0 -2.13334,0.5333 -4.26667,0 -1.86667,-0.2667 -4,-0.8 -1.33333,-0.5333 -2.93333,-0.8 -1.6,-0.2667 -3.2,-0.2667 h -0.26667 v -0.2666 q -2.4,-1.6 -5.33333,-2.4 -2.13334,-0.8 -4.26667,-1.6 -2.13333,-1.0667 -3.46667,-3.4667 -9.33333,-4.8 -15.2,-14.1333 -5.6,-9.6 -5.6,-19.7334 -0.26666,-1.8666 -0.26666,-3.7333 0,-1.8667 0,-3.7333 0,-20 10.13333,-36.2667 1.6,-3.7333 4.26667,-7.4667 2.66666,-4 5.6,-7.4666 0.8,-1.0667 1.33333,-1.8667 0.8,-0.8 1.6,-1.8667 2.4,-2.1333 5.33333,-2.9333 2.93334,-1.0667 5.86667,-1.8667 z m 27.46666,4.2667 q -9.06666,-1.8667 -18.66666,-2.1334 -9.6,-0.2666 -18.13334,3.4667 -0.26666,0.2667 -0.53333,0.2667 0,0 -0.26667,0.2666 l -0.53333,0.5334 q -1.6,1.3333 -3.2,2.9333 -1.33333,1.3333 -2.4,3.4667 -5.6,5.8666 -8.8,13.0666 -2.93333,6.9334 -5.6,13.8667 -0.53333,1.0667 -0.8,1.8667 -0.26667,0.5333 -0.26667,0.8 0,0.2666 -0.26666,0.5333 -0.26667,0.2667 -0.26667,0.5333 -1.6,9.6 -1.6,17.6 0,5.6 0.8,10.6667 1.33333,7.7333 4.53333,13.8667 3.46667,5.8666 8.8,10.1333 1.33334,0.5333 2.66667,1.6 1.6,0.8 2.93333,1.8667 1.6,1.3333 3.2,2.4 1.6,0.8 3.46667,1.3333 h 0.26667 q 1.86666,2.1333 4.26666,2.9333 2.66667,0.5334 5.6,1.0667 1.06667,0.2667 2.13334,0.5333 1.06666,0 2.13333,0.5334 4.53333,0.8 8.26667,0 4,-0.5334 8,-1.3334 1.6,-0.5333 3.2,-0.8 1.6,-0.2666 3.2,-0.5333 6.93333,-2.4 10.66666,-8.8 3.73333,-6.4 6.13333,-14.1333 1.6,-8 4,-15.2 1.86667,-6.4 3.2,-12.8 0.53334,-1.6 0.53334,-2.9334 0,-1.6 0,-3.2 0,-2.1333 0,-4 0.26666,-2.1333 0.8,-4.2666 -2.4,-5.0667 -4,-9.8667 -1.33334,-3.4667 -2.93334,-6.9333 -1.33333,-3.4667 -3.46666,-6.6667 h -0.26667 q -3.73333,-3.7333 -8,-7.2 -4.26666,-3.7333 -8.8,-5.3333 z m -26.93333,0 q 2.93333,-2.1334 6.13333,-1.6 3.46667,0.2666 6.4,1.3333 1.86667,0.5333 3.46667,1.0667 1.86667,0.5333 3.73333,0.5333 2.13334,-0.8 4,0.2667 1.86667,0.8 3.46667,2.1333 1.86667,1.3333 3.73333,2.4 h 0.26667 q 12.8,6.4 17.6,20.5333 2.13333,7.7334 2.13333,16.5334 0,4.8 -0.8,10.4 -0.8,2.9333 -1.6,5.8666 -0.53333,2.6667 -1.06667,5.6 -1.33333,6.6667 -3.2,13.0667 -1.86666,6.4 -6.39999,11.4667 -1.6,3.7333 -4.53334,5.6 -2.93333,1.8666 -6.13333,3.2 -2.93333,1.0666 -4.8,2.1333 l -0.26667,0.2667 q -0.8,0 -1.86666,0.2666 -0.8,0 -1.86667,0 -2.93333,0.5334 -6.13333,0.8 -2.93334,0.2667 -5.33334,-0.8 -4.26666,-0.5333 -9.06666,-1.8666 -4.8,-1.3334 -9.33334,-3.7334 -4.53333,-2.4 -8.53333,-5.6 -4,-3.4666 -6.66667,-8.2666 -4.8,-13.6 -4.8,-28 0,-11.2 3.2,-20.5334 2.4,-11.2 10.13334,-20.2666 8,-9.0667 18.13333,-12.8 z m 4.8,1.6 q -9.33333,1.3333 -16,8.5333 -6.66667,7.2 -12,15.2 -5.33333,12.2667 -5.33333,27.2 v 1.0667 q 0,6.9333 1.06666,13.8666 1.06667,6.6667 3.2,12.8 2.93334,5.6 8.26667,8.8 5.6,3.2 10.93333,5.6 l 1.06667,0.5334 q 0.26667,0.2666 0.26667,0.2666 0.26666,0 0.53333,0.2667 l 0.26667,0.2667 q 0,0 2.13333,0.5333 2.13333,0.2667 4.53333,0.8 2.66667,0.5333 4.8,1.0667 2.13334,0.5333 2.13334,0.5333 0,0 1.6,-0.2667 1.86666,-0.2666 3.73333,-0.2666 2.13333,-0.2667 3.73333,-0.2667 1.86667,-0.2667 1.86667,-0.2667 0,0 1.6,-0.8 1.6,-1.0666 3.46667,-1.8666 2.13333,-1.0667 3.73333,-1.8667 1.86667,-0.8 1.86667,-0.8 1.6,-1.8667 2.66666,-3.7333 1.33334,-1.8667 2.66667,-4 0.8,-1.3334 1.33333,-2.4 0.8,-1.0667 1.86667,-2.4 l 0.8,-2.9334 q 2.4,-8.2666 4.53333,-17.0666 2.13333,-9.0667 2.13333,-17.8667 0,-6.4 -1.6,-12.5333 -1.6,-6.1334 -5.59999,-11.4667 -5.86667,-5.6 -12,-9.8667 -5.86667,-4.2666 -13.06667,-4.8 -1.86667,0.5334 -3.46667,0 -1.33333,-0.5333 -2.66666,-1.0666 -1.33334,-0.5334 -2.66667,-0.8 -1.06667,-0.5334 -2.4,0 z m -2.4,25.6 q 2.13333,-1.3334 5.06667,-1.0667 2.93333,0 5.06666,1.3333 2.66667,0.8 4.53334,2.6667 1.86666,1.6 4,3.4667 0.8,0.8 1.33333,1.6 0.8,0.8 1.6,1.3333 1.86667,2.1333 2.4,4.5333 0.53333,2.4 0.53333,5.0667 0,1.6 -0.26666,3.4667 0,1.6 -0.26667,3.4666 l -0.8,6.4 q -0.53333,8.5334 -10.4,12 -9.6,3.7334 -18.4,-2.9333 -2.4,-2.9333 -3.2,-6.1333 -0.8,-3.4667 -1.33333,-7.2 -0.26667,-1.8667 -0.53334,-3.4667 -0.26666,-1.8667 -0.8,-4 h -0.26666 q 0.8,-5.3333 3.2,-11.2 2.4,-6.1333 8.53333,-9.3333 z m -8.53333,22.1333 q 0,10.1333 6.13333,17.8667 3.73333,2.4 8.26667,2.4 4.8,-0.2667 9.33333,-2.4 4,-2.1334 4.8,-6.4 1.06667,-4.2667 1.33333,-8.8 0,-1.8667 0,-3.4667 0.26667,-1.6 0.53334,-3.2 -0.53334,-0.8 -1.06667,-1.8667 -0.26667,-1.0666 -0.8,-2.1333 -0.8,-2.1333 -2.13333,-4.2667 -1.06667,-2.1333 -3.2,-3.4666 -4.53334,-4 -13.33334,-4 -6.4,4 -8,9.3333 v 0.2667 q -0.8,2.4 -1.33333,5.0666 -0.53333,2.6667 -0.53333,5.0667 z m 10.66666,-18.4 v 0.2667 q 8.26667,0.8 15.2,7.7333 1.86667,2.9333 2.93334,6.6667 1.33333,3.4666 0,7.2 -2.13334,4.5333 -5.06667,8.5333 -2.93333,4 -8,5.3333 -2.93333,-0.5333 -6.13333,-1.0666 -2.93334,-0.8 -4.53334,-3.7334 l -3.2,-7.7333 q 0.26667,-1.3333 0.26667,-2.4 0.26667,-1.3333 0.26667,-2.6667 0.53333,-5.3333 1.6,-10.1333 1.06666,-4.8 6.4,-7.7333 z m 6.66667,5.8667 q -1.33333,-1.0667 -2.93333,-1.6 -1.6,-0.8 -3.46667,-0.2667 -4.26667,2.9333 -5.06667,7.7333 -0.8,4.8 -0.8,9.3334 v 0.8 q 0,0.5333 -0.26666,0.8 0,0.2666 0,0.5333 1.33333,1.6 1.86666,3.4667 0.53334,2.4 1.86667,3.7333 2.13333,1.3333 5.06667,1.8667 3.2,0.5333 5.86666,-1.3334 2.13334,-2.4 4.53334,-5.6 2.66666,-3.4666 2.66666,-7.7333 0,-1.0667 -0.26666,-1.6 v -0.2667 q -1.06667,-2.4 -2.13334,-4.5333 -1.06666,-2.1333 -3.2,-3.7333 -1.06666,-0.2667 -1.86666,-0.5334 -0.8,-0.5333 -1.86667,-1.0666 z"
             style="font-style:normal;font-variant:normal;font-weight:normal;font-stretch:normal;font-size:266.66665649px;font-family:'Key Tab Metal';-inkscape-font-specification:'Key Tab Metal';fill:#4e4e4e;fill-opacity:1;stroke:#4e4e4e;stroke-width:7;stroke-linecap:round;stroke-linejoin:round;stroke-miterlimit:4;stroke-dasharray:none;stroke-opacity:1"
             id="path2138" />
          <path
             d="m -194.88797,1009.5309 q 1.06666,-0.2667 2.66666,0.5333 h 1.6 q 0.8,0 1.6,0 0.8,-0.2666 1.86667,-0.2666 h 5.06667 q 6.4,0.5333 13.33333,0 4,0 8,0.2666 4.26667,0 8.26667,0.5334 2.93333,-0.8 4.26666,0.2666 0.8,0.8 0.8,1.6 v 2.4 q -0.8,11.2 -1.6,22.6667 -0.53333,11.2 -0.53333,22.6667 0,6.9333 0.26667,13.6 0.53333,6.6666 1.06666,13.6 l 0.53334,12 q 0.53333,11.4666 1.06666,23.2 0.53334,11.4666 0.53334,23.2 0,4.5333 -0.26667,8.8 0,4 -0.26667,8.5333 0.8,3.7333 0.8,6.9333 0,3.2 -0.26666,6.4 -0.26667,3.2 -0.8,6.1334 -0.53334,2.9333 -0.8,6.1333 -0.26667,2.9333 -0.26667,5.8667 v 3.7333 q -0.26667,1.0667 -0.26667,3.2 -0.26666,1.6 -0.8,3.4667 -0.26666,1.6 -1.6,2.9333 l -0.26666,0.2667 q -3.73334,0.2666 -7.2,0.2666 -3.2,0 -6.66667,0.2667 -6.93333,0 -13.86667,0.2667 -6.93333,0.5333 -14.13333,2.1333 v 0.2667 l -0.26667,-0.2667 q -1.06666,-0.8 -1.06666,-1.6 0,-0.8 0.53333,-1.3333 0.53333,-1.0667 0.53333,-1.0667 0,0 -0.26666,-0.2667 l 0.26666,-0.2666 q 1.06667,-1.0667 1.06667,-2.6667 0,-0.5333 -0.26667,-1.0667 0,-0.8 0,-1.3333 -0.26666,-0.8 -0.53333,-1.3333 0,-0.8 0,-1.6 v -1.0667 q -1.06667,-4.5333 -1.33333,-9.3333 -0.26667,-4.8 -0.53334,-9.6 -0.26666,-4.5334 -0.53333,-8.8 0,-4.2667 -1.06667,-8.2667 l -0.26666,-9.6 q -0.53334,-6.4 -0.8,-12.5333 -0.26667,-6.1334 -0.26667,-12.8 0,-5.3334 -0.26667,-10.4 0,-5.0667 -0.26666,-9.8667 -0.8,-9.8667 -0.8,-20 0,-3.7333 0,-7.2 0.26666,-3.7333 0.53333,-7.4667 0,-3.2 -0.26667,-6.4 0,-3.2 0,-6.4 0,-8.5333 0.26667,-17.0666 0.53333,-8.5334 1.06667,-17.0667 0,-2.4 0.26666,-4.2667 0,-1.6 0,-2.9333 0.26667,-1.3333 0.26667,-1.6 -0.26667,-0.2667 -0.53333,-0.5333 0,-0.2667 -0.26667,-0.5334 v -0.2666 q 0,-1.0667 1.06667,-2.1334 0.53333,-1.0666 0.53333,-1.6 h 0.26667 q 0,-0.5333 0.8,-1.3333 z m -0.26667,25.3333 q -0.26667,3.7334 -0.53333,7.4667 0,3.4667 -0.53334,7.2 0.26667,2.6667 0.26667,5.3333 0.26667,2.4 0.26667,5.0667 0,3.7333 -0.26667,7.7333 0,3.7334 -0.26667,7.4667 -0.26666,4 -0.53333,8 0,4 0,8.2667 v 3.2 q 0.8,5.3333 1.06667,10.9333 0.26666,5.3333 0.53333,10.6667 0,4.2666 0,8.2666 0.26667,4 0.53333,8.2667 -0.26666,1.6 -0.53333,3.4667 0,1.6 0,3.2 0,2.9333 0.26667,5.6 0.26666,2.6666 0.53333,5.3333 0.53333,2.9333 0.8,5.6 0.26667,2.4 0.26667,5.0667 0,1.3333 -0.26667,1.8666 1.06667,8 1.6,16.5334 0.53333,5.3333 1.06667,10.9333 0.53333,5.3333 1.6,10.6667 0.53333,-1.0667 0.53333,-1.0667 0.26667,-0.8 0.26667,-2.9333 0,-2.1334 -0.26667,-4.5334 0,-2.4 -0.26667,-4.5333 -0.8,-4.8 -0.8,-9.3333 0,-1.6 0,-3.2 0.26667,-1.8667 0.53334,-3.4667 -1.06667,-4.5333 -1.33334,-9.3333 -0.26666,-5.0667 -0.26666,-9.8667 v -6.1333 q 0.26666,-1.6 0.26666,-2.9334 0,-1.6 0,-3.2 0,-2.6666 -0.26666,-5.0666 0,-2.6667 -0.26667,-5.0667 0.8,-7.2 1.06667,-14.1333 0.26666,-6.9334 0.53333,-13.8667 l 0.26667,-8.5333 q 0,-4.2667 -0.26667,-8.5334 0,-4.2666 -0.26667,-8.5333 -0.53333,-8.2667 -0.8,-16.5333 -0.26666,-8.2667 -0.26666,-16.5334 0,-5.0666 0,-10.1333 0,-5.0667 0.53333,-9.8667 h 0.26667 q 0,-0.5333 0,-0.8 0.26666,-0.5333 0.26666,-1.0666 0,-1.8667 -1.33333,-3.2 -1.33333,-1.6 -2.66667,-3.2 v -0.2667 q -0.53333,5.0667 -0.8,10.1333 -0.26666,4.8 -0.53333,9.6 z m 19.2,-22.4 q -4.26667,-0.5333 -8,-0.5333 -3.73333,0 -7.46667,1.0667 0.53334,0.5333 1.6,2.1333 1.33334,1.3333 1.6,1.6 0,0 2.4,0.2667 2.66667,0 5.33334,0.2666 2.93333,0 5.33333,0.2667 2.4,0.2667 2.4,0.2667 1.6,-0.5334 3.2,-0.2667 1.86667,0 4,0.2667 4.26667,0.5333 8,0.2666 4,-0.2666 5.86667,-4.5333 h -3.46667 l -2.13333,-0.5333 q -1.86667,-0.5334 -3.73334,-0.8 -1.6,-0.2667 -3.46666,0.2666 v 0.2667 q -2.93334,0.2667 -5.86667,0.2667 -2.66667,-0.2667 -5.6,-0.5334 z m 4,8.2667 q -3.73333,-0.5333 -7.46667,-0.8 -3.73333,-0.2667 -8,0.2667 v 0.2666 q 0,0.5334 0,1.0667 0.26667,0.2667 0.26667,0.8 0,0.5333 0,0.8 0.26667,0.2667 0.26667,0.8 0,0.8 -0.53334,1.3333 0,4 -0.26666,8 0,4 0,7.7334 -0.26667,4 -0.53334,8.2666 0,4 0,8 0,3.4667 0,6.9334 0,3.2 0.53334,6.6666 0.8,10.4 0.8,20.8 0,14.6667 -0.8,28.5334 -0.26667,7.2 -0.53334,14.4 -0.26666,7.2 -0.26666,14.6666 0,3.2 0,6.4 0.26666,3.2 0.26666,6.6667 l 1.6,9.6 q 0,1.3333 -0.26666,2.9333 0,1.3334 0,2.6667 0,3.7333 0.53333,7.7333 0.53333,4 1.06667,8.5334 h 0.26666 l -0.26666,0.2666 q -0.26667,0.2667 -0.26667,1.0667 0,0.8 0.26667,1.3333 0,0.5334 0,0.8 0.26666,0 0.26666,0.5334 v 0.2666 q 1.6,0 3.46667,0 1.86667,-0.2666 3.73333,-0.2666 4.26667,-0.5334 7.46667,0 1.33333,0 2.4,0 1.06667,0 2.4,0.2666 2.13333,0.5334 4,0.8 1.86667,0 3.73333,-0.5333 0,-0.2667 -0.26666,-0.5333 0,-0.2667 0,-0.8 -0.26667,-0.5334 -0.26667,-0.8 0,-0.2667 0.8,-1.0667 v -2.4 q 0,-5.0667 0.8,-9.8667 0.26667,-2.4 0.26667,-4.8 0.26666,-2.6666 0.26666,-5.0666 0,-1.3334 -0.26666,-2.6667 0,-1.6 -0.26667,-2.9333 h 0.26667 q 2.13333,-7.2 2.4,-15.7334 0.26666,-8.5333 0.53333,-16.2666 v -5.0667 q -4,-20.8 -4,-44.2667 0,-6.1333 0.26667,-12.5333 0.26666,-6.4 0.8,-13.3333 -0.53334,-2.6667 -0.53334,-5.0667 0,-2.4 0,-5.0667 0,-2.4 0,-4.8 0,-2.6666 0.26667,-5.0666 0.26667,-2.4 0.26667,-4.8 0.26666,-2.4 0.26666,-4.8 0,-2.1334 -0.26666,-4.2667 0,-2.4 -0.26667,-4.5333 -0.53333,-0.5334 -0.8,-0.5334 -4,0 -7.46667,0 -3.46666,-0.2666 -6.93333,-0.5333 z m -13.6,180.2667 q -2.4,2.4 -3.2,6.1333 3.46667,-0.5333 6.93333,-0.5333 3.46667,0 7.2,-0.2667 5.33334,-0.2667 10.4,-0.5333 5.33334,-0.2667 10.4,-1.0667 -1.06666,-0.8 -2.13333,-1.3333 -0.53333,-0.5334 -1.06667,-0.5334 -0.26666,-0.2666 -0.8,-0.8 h -1.06666 v -0.2666 q -6.13334,-1.3334 -12.53334,-1.3334 -6.13333,0 -12.53333,0.5334 z m 32,-166.4 q 0,1.0666 0,2.1333 0,1.0667 -0.53333,2.1333 0.26666,2.4 0.26666,4.8 0,2.1334 0,4.5334 0,5.0666 -0.26666,10.1333 0,5.0667 -0.26667,10.1333 0,5.3334 -0.26667,10.4 0,5.0667 0,10.4 0,9.6 0.53334,19.2 0.8,9.6 2.93333,18.9334 0.8,4 0.8,7.7333 0,2.4 -0.26667,4.8 0,2.4 -0.26666,4.5333 -0.26667,2.1334 -0.53334,4.2667 0,2.1333 0,4.2667 v 1.6 q -1.6,6.1333 -2.13333,12.2666 -0.53333,5.8667 -0.53333,12 v 7.7334 q 0.26666,2.1333 0.26666,4 0,1.6 0,3.7333 0,1.3333 0,2.9333 0,1.3334 -0.26666,2.6667 0.26666,0.2667 1.06666,1.0667 1.06667,0.8 1.6,1.3333 0,-0.8 0,-1.6 0.26667,-0.8 0.53334,-1.8667 0.26666,-0.5333 0.26666,-1.8666 v -2.9334 q 0,-2.9333 0.26667,-6.1333 0.26667,-3.2 0.8,-6.4 0.53333,-3.2 0.8,-6.4 0.26667,-3.2 0.26667,-6.4 0,-4 -0.8,-8 0.8,-8.2667 0.8,-16.5333 0,-12 -0.8,-23.2 -0.26667,-5.6 -0.53334,-11.2 -0.26666,-5.8667 -0.26666,-11.7334 -0.26667,-2.1333 -0.26667,-4.5333 0,-2.4 0,-4.5333 -0.26667,-3.7334 -0.53333,-7.2 0,-3.7334 -1.06667,-6.6667 l -0.26667,-0.2667 q 0,-8.2666 0,-15.7333 0.26667,-7.4667 0.53334,-14.4 0.26666,-6.9333 0.53333,-13.6 0.53333,-6.9333 1.06667,-14.4 v -0.5333 q -0.53334,0.5333 -1.6,1.0666 -1.33334,1.3334 -1.33334,1.8667 v 0.8 h 0.26667 l -0.26667,0.2667 q -0.53333,1.3333 -0.8,2.9333 0,1.3333 0,2.9333 v 4.2667 q 0.26667,1.3333 0.26667,4.2667 z"
             style="font-style:normal;font-variant:normal;font-weight:normal;font-stretch:normal;font-size:266.66665649px;font-family:'Key Tab Metal';-inkscape-font-specification:'Key Tab Metal';fill:#4e4e4e;fill-opacity:1;stroke:#4e4e4e;stroke-width:7;stroke-linecap:round;stroke-linejoin:round;stroke-miterlimit:4;stroke-dasharray:none;stroke-opacity:1"
             id="path2140" />
          <path
             d="m -85.604641,1094.8642 q 14.933333,-0.8 22.666666,6.1334 8,1.8666 13.6,8.5333 5.599999,6.6667 9.333333,13.6 0.799999,1.6 0.799999,2.9333 0.266667,1.3334 0.266667,2.6667 0,1.0667 0,2.1333 0,0.8 0.266667,2.1334 h 0.266666 l -0.266666,0.2666 q -0.8,2.1334 -1.066667,4.5334 0,2.1333 -0.266666,4.8 -0.266667,3.7333 -0.8,7.4666 -0.266667,3.4667 -2.666667,6.4 h -0.266667 q -1.866666,0.8 -3.733333,0.8 -1.866666,-0.2666 -3.733333,-0.5333 -2.133333,-0.5333 -4,-0.5333 -1.866667,-0.2667 -3.733333,0.8 l -0.266667,0.2666 -0.266666,-0.2666 q -1.866667,-0.5334 -3.733334,-0.5334 -1.866666,0 -3.999999,0.5334 -2.133334,0.5333 -4,0.8 -1.866667,0 -4,-1.0667 -1.866667,0.2667 -4,0.2667 -1.866667,-0.2667 -4,-0.5334 -1.866666,-0.2666 -3.733333,-0.2666 -1.866667,-0.2667 -3.733333,-0.2667 v 0.8 q 0,1.0667 -0.266667,1.8667 v 1.8666 q 0,1.6 0.266667,3.2 0.533333,1.3334 1.866666,2.1334 0.8,1.3333 1.6,1.6 1.066667,0.2666 2.133334,0.5333 1.066666,0.2667 2.666666,0.8 1.866667,-0.2667 4,0.5333 0.533333,0.2667 1.333333,0.5334 0.8,0.2666 1.333334,0 l 0.266666,-0.2667 0.266667,0.2667 q 1.6,1.0666 4.8,0.5333 1.866666,-0.2667 4,0 7.466666,-2.4 12.533332,-10.6667 v -0.2666 l 0.533334,0.2666 q 1.866666,0.5334 2.133333,1.3334 0,0.2666 0.266667,0.2666 0,0.2667 -0.533334,0.8 0.533334,3.4667 1.6,5.6 4.266667,5.6 5.066667,12.5334 1.066666,6.9333 1.6,13.6 v 1.6 0.2666 q 0,0.2667 -0.266667,0.8 0,0.2667 0,0.8 0,0.5334 0,1.0667 0.266667,0.2667 0.266667,0.8 v 1.8667 q 0,2.1333 -0.8,2.9333 l -0.266667,0.2667 v -0.2667 q -1.866667,-0.2667 -4.533333,1.0667 -2.133333,1.0666 -3.733333,1.0666 -6.133333,2.9334 -13.333333,3.4667 -6.933333,0.5333 -13.866666,0.8 -2.933334,0 -5.6,0 -2.666667,0 -5.6,0.5333 -3.2,0 -6.133333,-0.8 -2.933333,-0.5333 -6.133333,-1.0666 -1.33333,-0.2667 -2.66667,-0.5334 -1.06666,0 -2.4,-0.5333 h -0.26666 q -1.33334,-1.3333 -3.2,-1.6 -1.6,-0.2667 -3.2,-0.8 l -1.33334,-0.2667 q -11.2,-10.1333 -16.26666,-21.6 -4.8,-11.7333 -2.93334,-23.4666 2.13334,-10.1334 5.06667,-20.2667 2.93333,-10.1333 8.26667,-18.9333 12.26666,-19.7334 26.93333,-24.5334 h 0.266666 l 2.133334,-0.2666 q 1.866666,0 3.733333,-0.2667 1.866666,-0.2667 3.2,-1.0667 z m 6.133333,2.9334 q -3.999999,-0.2667 -7.733333,0 -3.733333,0.2666 -5.866666,0.8 -17.333333,6.4 -27.733333,25.6 -7.73333,14.9333 -11.73333,37.0666 -0.26667,1.3334 -0.26667,2.9334 0,1.3333 0,2.6666 0,8.2667 4,17.0667 2.13333,4.8 5.6,9.6 3.73333,4.8 8.26667,9.0667 1.33333,0 2.4,0.5333 1.33333,0.5333 2.66666,1.0667 1.33334,0.5333 2.66667,1.3333 1.6,0.5333 3.2,0.2667 v -0.2667 0.2667 q 6.933333,2.1333 14.399999,1.8666 7.466667,-0.2666 14.933333,-0.8 2.933333,-0.2666 5.866667,-0.2666 3.199999,-0.2667 6.133333,-0.2667 2.133333,-0.5333 4.533333,-1.3333 2.4,-1.0667 4.533333,-1.8667 1.333333,-0.5333 2.666667,-1.0667 1.6,-0.5333 2.933333,-1.0666 -0.533333,-0.5334 -1.333333,-1.3334 -0.8,-1.0666 -1.066667,-1.3333 -0.533333,0.2667 -1.333333,0.8 -0.533334,0.2667 -1.066667,0.8 -1.333333,1.0667 -3.2,2.1333 -1.6,0.8 -3.733333,0.5334 -7.2,3.4666 -15.733333,3.7333 -8.266666,0.2667 -14.933333,-0.5333 -2.133333,0.2666 -3.999999,-0.2667 -1.866667,-0.8 -3.466667,-1.6 -1.866667,-0.5333 -3.466663,-1.0667 -1.6,-0.8 -3.46667,-0.5333 v 0.2667 -0.2667 q -4.8,-1.3333 -9.06667,-4.5333 -4.26666,-3.2 -8,-6.9334 -3.46666,-3.7333 -5.33333,-9.0666 -1.6,-5.3334 -1.6,-10.6667 0,-2.6667 0.53333,-5.3333 0.53334,-2.6667 1.33334,-5.0667 v -1.0667 q -0.26667,-0.5333 -0.26667,-1.3333 0,-1.0667 0.26667,-1.6 v -0.2667 q 0,0 0.26666,-0.5333 v -1.0667 q 0.26667,-1.8666 0.26667,-3.4666 0,-1.6 0.53333,-3.2 1.6,-13.0667 9.6,-25.0667 6.93334,-10.4 18.933336,-19.4667 h 0.266667 q 1.6,-0.5333 3.2,-1.0666 1.6,-0.8 3.2,-1.6 2.666666,-1.3334 5.333333,-2.4 2.933333,-1.0667 5.866666,-0.8 z m -11.199999,6.4 q -2.133333,1.0666 -3.2,1.3333 -8.533333,4.2667 -14.400003,11.7333 -5.86666,7.4667 -10.4,15.7334 l -0.53333,2.1333 q -1.6,4.5333 -2.93333,9.3333 -1.33334,4.8 -1.33334,9.6 0,1.0667 0,2.1334 0.26667,1.0666 0.26667,2.1333 l -0.8,4 q -0.53333,2.1333 -1.06667,4.5333 -0.53333,2.4 -0.53333,5.0667 0,0.8 0,1.6 0.26667,0.8 0.26667,1.6 0.53333,8.2667 6.66666,14.6667 6.4,6.4 13.33334,9.0666 0.8,0.2667 2.66666,0.2667 1.33334,0.2667 2.933336,0.8 1.6,0.2667 2.933334,1.6 4,1.0667 8.533333,1.6 4.533333,0.2667 8.799999,0.2667 4.266667,-0.2667 8,-0.5334 3.733333,-0.5333 6.4,-1.0666 1.333333,-0.8 2.666666,-1.3334 1.333334,-0.5333 2.666667,-1.0666 2.933333,-0.8 5.066666,-1.8667 2.4,-1.3333 3.466667,-4.2667 0,0 -0.533333,-2.1333 -0.533334,-2.1333 -1.066667,-4.5333 -0.533333,-2.4 -1.066667,-4.5334 -0.533333,-2.1333 -0.533333,-2.1333 -1.333333,-0.5333 -1.333333,-2.4 0,-0.2667 0,-0.5333 0.266666,-0.2667 0.266666,-0.8 v -1.3334 q 0,-0.8 -0.266666,-1.0666 -3.2,2.1333 -8.533333,2.9333 -2.133333,-0.2667 -4.266667,0 -1.866666,0 -4,0.2667 -3.999999,0.2666 -8.266666,0.2666 -4,0 -7.733333,-1.3333 -1.333333,0 -2.4,-0.8 -1.066667,-0.8 -2.133333,-1.6 -1.866667,-1.8667 -3.2,-2.4 h -0.266667 q -2.4,-3.2 -3.2,-7.2 -0.799996,-4.2667 -1.066666,-7.4667 0.26667,-0.8 0.26667,-2.1333 0.26666,-2.1333 0.799996,-4 0.533334,-1.8667 3.466667,-2.1333 8.8,0 17.333333,0.8 7.199999,0.5333 14.666666,0.8 7.466666,0.2666 14.933333,-0.2667 1.599999,-2.4 2.133333,-4.5333 0.533333,-2.4 0.533333,-4.8 0,-2.4 -0.533333,-4.8 -0.266667,-2.4 -0.8,-5.0667 -0.266667,-1.3333 -0.533333,-2.4 0,-1.3333 -0.266667,-2.6667 -1.066667,-1.3333 -2.133333,-2.6666 -0.8,-1.3334 -1.866667,-2.9334 -4.266667,-6.1333 -9.333333,-11.2 -5.066666,-5.0666 -13.066666,-4.5333 l -0.8,-0.5333 q -1.6,-0.5334 -1.866667,-1.8667 -3.2,-0.5333 -6.399999,0.5333 -3.2,0.8 -6.4,2.1334 z m 15.733333,-4.2667 q 1.066666,0.5333 1.599999,1.0667 1.6,0.5333 2.933334,0.5333 h 2.133333 q -2.133333,-1.6 -4.8,-2.4 -2.666666,-0.8 -5.333333,-1.0667 0.8,0 1.066667,0.2667 h 0.266666 q 0.8,1.0667 2.133334,1.6 z m 22.399999,71.4667 q 0,0.2666 -0.266667,0.5333 0,0 0.266667,0.5333 v 0.2667 q 1.066666,5.6 2.133333,11.2 1.333333,5.6 3.733333,10.4 l 0.266667,0.5333 h -0.266667 q -0.8,0.5334 -0.8,0.8 v 0.2667 q 0,1.0667 1.333333,1.8667 v -0.8 -0.5334 -1.3333 q 0.266667,-1.0667 0.266667,-2.6667 0,-14.9333 -7.466666,-25.3333 -0.266667,0.2667 -0.266667,0.8 0,0.5333 0.533333,1.6 0.533334,1.0667 0.533334,1.8667 z m -44.533332,-18.4 q 0,0.2666 -0.266667,0.2666 v 2.1334 q 0,4.8 1.6,9.6 1.866667,4.8 6.4,7.2 2.4,1.6 5.066667,1.8666 2.933333,0 5.866666,-0.5333 0.8,0 1.6,0 1.066667,-0.2667 1.866667,-0.2667 -2.933334,-1.0666 -5.866667,-1.0666 -1.866667,-0.5334 -3.733333,-0.8 -1.866667,-0.2667 -4,-1.3334 -3.733333,-1.3333 -4.266666,-3.7333 -0.533334,-2.6667 -0.8,-5.6 -0.266667,-2.4 -0.8,-4.2667 -0.266667,-2.1333 -2.666667,-3.4666 z m 23.733332,-0.5334 q -4.799999,-0.5333 -9.599999,-0.5333 -4.8,-0.2667 -9.6,0.2667 l 0.8,0.8 q 12,1.3333 22.933333,1.3333 10.933333,0 21.066665,-0.5333 -0.533333,-0.5334 -2.133333,-1.0667 h -1.333333 q -5.6,0.8 -11.2,0.5333 -5.599999,-0.2666 -10.933333,-0.8 z m 30.133333,-13.8666 q 0,7.2 -2.4,13.0666 0.266666,0.2667 0.533333,0.5334 0.533333,0.2666 1.066667,0.8 0,-0.5334 0.533333,-2.1334 l 0.533333,-1.6 v -2.9333 q 0,-4.2667 0.8,-8.2667 0.266667,-2.1333 0.266667,-4 0.266667,-1.8666 0.266667,-4 0,-5.6 -2.4,-9.6 -2.933334,-2.9333 -5.333333,-6.1333 -3.2,-3.7333 -6.4,-6.6667 -2.933333,-2.9333 -7.2,-3.7333 2.133333,1.3333 4,3.7333 2.133333,2.1334 4,4.2667 l 4,4.8 q 7.733333,9.0667 7.733333,21.8667 z m -24.533333,34.9333 q -1.066666,-0.5333 -2.4,-0.5333 -1.333333,0 -2.666666,0.2666 0.8,0 2.4,0.5334 h 0.533333 q 0.266667,0 0.266667,0 0.266666,-0.2667 0.533333,-0.2667 z m 11.2,-5.8667 q -5.066667,4.2667 -10.133333,5.8667 1.866666,-0.2667 3.466666,-0.2667 1.6,-0.2666 3.2,-0.8 h 0.266667 q 1.6,-0.5333 2.133333,-1.8666 0.8,-1.6 1.066667,-2.9334 z m -26.133333,-48.8 q 2.666667,-0.8 4.8,0.2667 2.4,0.8 4,2.6667 1.866667,1.6 3.2,3.7333 1.6,1.8667 2.4,3.4667 l 0.266667,0.2666 h -0.266667 q 0,0.5334 0,0.8 0.266667,0.2667 0.266667,0.8 1.066666,1.8667 0.266666,2.6667 -0.266666,0.5333 -1.866666,1.0667 -2.133334,0.2666 -4.533334,0.2666 -2.133333,-0.2666 -4.266666,-0.2666 -3.2,0 -6.4,0.2666 -3.2,0 -6.4,0.8 v 0.2667 l -0.266666,-0.2667 q -0.8,-0.5333 -0.8,-1.0666 0,-0.8 0,-1.3334 v -0.8 -0.2666 h 0.266666 q 1.066667,-1.3334 1.6,-2.6667 0.8,-1.3333 1.6,-2.6667 1.066667,-2.1333 2.4,-4.2666 1.333334,-2.4 3.466667,-3.7334 z m 1.333334,2.6667 q -1.066667,0.2667 -1.866667,1.6 l 1.6,-0.8 1.333333,-0.5333 0.266667,0.2666 q 1.6,0.8 3.466667,2.6667 1.866666,1.8667 2.399999,4 h 0.8 q 0.266667,-0.2667 0.533334,-0.2667 -1.333334,-2.1333 -3.466667,-4.2666 -1.866666,-2.1334 -5.066666,-2.6667 z m 1.066666,4 q -0.533333,0.2667 -1.6,1.0667 -1.066666,0.5333 -1.599999,0.8 1.066666,0.8 3.999999,0.2666 h 1.333334 z m 2.933334,5.3333 q -1.333334,0.5334 -2.666667,0.5334 -1.066667,0 -2.4,0 -1.333333,-0.2667 -2.666666,-0.2667 -1.066667,0 -2.133334,1.0667 h 4.533333 q 2.133334,0 4,0 2.133334,0 3.466667,-0.5334 -0.8,-0.8 -2.133333,-0.8 z"
             style="font-style:normal;font-variant:normal;font-weight:normal;font-stretch:normal;font-size:266.66665649px;font-family:'Key Tab Metal';-inkscape-font-specification:'Key Tab Metal';fill:#4e4e4e;fill-opacity:1;stroke:#4e4e4e;stroke-width:7;stroke-linecap:round;stroke-linejoin:round;stroke-miterlimit:4;stroke-dasharray:none;stroke-opacity:1"
             id="path2142" />
        </g>
      </g>
    </g>
    <g
       id="g1818"
       transform="matrix(0.1054947,0,0,0.1054947,263.63944,57.186706)">
      <path
         id="path1948"
         d="m -1059.9522,-314.26717 c -21.8831,0.10169 -42.7812,1.96798 -61.1696,5.2218 -54.1692,9.56991 -64.0041,29.60061 -64.0041,66.54064 v 48.78652 h 128.0087 v 16.26218 h -128.0087 -48.0406 c -37.203,0 -69.779,22.36104 -79.9681,64.8995 -11.7531,48.758881 -12.2745,79.185248 0,130.097397 9.0992,37.897013 30.8295,64.899456 68.0326,64.899504 h 44.0121 V 23.95622 c 0,-42.251386 36.5571,-79.520542 79.9681,-79.520542 h 127.85972 c 35.5913,0 64.0041,-29.304952 64.0041,-65.048698 v -121.89171 c 0,-34.69108 -29.26547,-60.75086 -64.0041,-66.54064 -21.99002,-3.66054 -44.80652,-5.32349 -66.69012,-5.2218 z m -69.2261,39.23809 c 13.2227,0 24.0205,10.9742 24.0205,24.46786 0,13.44577 -10.7978,24.31866 -24.0205,24.31866 -13.2695,-5e-5 -24.02,-10.87289 -24.02,-24.31866 0,-13.49366 10.7505,-24.46786 24.02,-24.46786 z"
         style="fill:#4e4e4e;fill-opacity:1;stroke-width:4.77421665" />
      <path
         id="path1950"
         d="m -913.29396,-177.45603 v 56.84301 c 0,44.069597 -37.36254,81.16163 -79.96812,81.161678 h -127.85972 c -35.0227,0 -64.0041,29.9748225 -64.0041,65.048699 V 147.48902 c 0,34.69113 30.1664,55.09603 64.0041,65.04875 40.5207,11.91458 79.3775,14.06785 127.85972,0 32.22643,-9.33068 64.0041,-28.10873 64.0041,-65.04875 V 98.702546 H -1057.1172 V 82.440371 h 127.85922 64.00457 c 37.20309,0 51.06598,-25.949824 64.0041,-64.899504 13.36495,-40.098119 12.79634,-78.65894 0,-130.097397 -9.1937,-37.03575 -26.75375,-64.8995 -64.0041,-64.8995 z m -71.91163,308.68292 c 13.26993,0 24.02003,10.87285 24.02003,24.31867 0,13.49361 -10.7501,24.46786 -24.02003,24.46786 -13.22267,0 -24.02051,-10.97425 -24.02051,-24.46786 0,-13.44582 10.79784,-24.31867 24.02051,-24.31867 z"
         style="fill:#4e4e4e;fill-opacity:1;stroke-width:4.77421665" />
      <ellipse
         id="path1894"
         style="opacity:0.44382025;fill:url(#radialGradient1480);fill-opacity:1;fill-rule:nonzero;stroke:none;stroke-width:73.60591888;stroke-miterlimit:4;stroke-dasharray:none;stroke-opacity:1"
         cx="-1055.6652"
         cy="295.39966"
         rx="171.54227"
         ry="33.263454" />
    </g>
  </g>
</svg>
